<?xml version="1.0" encoding="UTF-8" standalone="no"?>
<svg
   xmlns:dc="http://purl.org/dc/elements/1.1/"
   xmlns:cc="http://creativecommons.org/ns#"
   xmlns:rdf="http://www.w3.org/1999/02/22-rdf-syntax-ns#"
   xmlns:svg="http://www.w3.org/2000/svg"
   xmlns="http://www.w3.org/2000/svg"
   xmlns:sodipodi="http://sodipodi.sourceforge.net/DTD/sodipodi-0.dtd"
   xmlns:inkscape="http://www.inkscape.org/namespaces/inkscape"
   width="176.82314mm"
   height="173.66325mm"
   viewBox="0 0 176.82314 173.66326"
   version="1.1"
   id="svg8"
   inkscape:version="1.0.2 (e86c870879, 2021-01-15, custom)"
   sodipodi:docname="mütze.svg">
  <defs
     id="defs2" />
  <sodipodi:namedview
     id="base"
     pagecolor="#ffffff"
     bordercolor="#666666"
     borderopacity="1.0"
     inkscape:pageopacity="0.0"
     inkscape:pageshadow="2"
     inkscape:zoom="0.7"
     inkscape:cx="192.5313"
     inkscape:cy="471.16759"
     inkscape:document-units="mm"
     inkscape:current-layer="layer1"
     inkscape:document-rotation="0"
     showgrid="false"
     fit-margin-top="0"
     fit-margin-left="0"
     fit-margin-right="0"
     fit-margin-bottom="0"
     inkscape:window-width="1624"
     inkscape:window-height="1020"
     inkscape:window-x="49"
     inkscape:window-y="6"
     inkscape:window-maximized="0" />
  <metadata
     id="metadata5">
    <rdf:RDF>
      <cc:Work
         rdf:about="">
        <dc:format>image/svg+xml</dc:format>
        <dc:type
           rdf:resource="http://purl.org/dc/dcmitype/StillImage" />
        <dc:title></dc:title>
      </cc:Work>
    </rdf:RDF>
  </metadata>
  <g
     inkscape:label="Layer 1"
     inkscape:groupmode="layer"
     id="layer1"
     transform="translate(-17.725458,-30.28982)">
    <g
       id="g921"
       transform="translate(0.73662742,1.2066467)">
      <path
         style="fill:#b1b1b1;stroke-width:0.264583"
         d="m 98.751303,102.82842 c 1.01e-4,-4.802184 0.03594,-6.729388 0.07965,-4.282672 0.04371,2.446712 0.04362,6.375782 -1.83e-4,8.731252 -0.04381,2.35547 -0.07957,0.35361 -0.07947,-4.44858 z m 6.085417,0 c 1e-4,-4.802184 0.0359,-6.729388 0.0797,-4.282672 0.0437,2.446712 0.0436,6.375782 -1.9e-4,8.731252 -0.0438,2.35547 -0.0796,0.35361 -0.0795,-4.44858 z"
         id="path933" />
      <path
         style="fill:#fc6700;stroke-width:0.264583"
         d="m 114.30553,199.23544 c -2.49394,-1.48158 -3.5439,-4.42704 -2.8359,-5.91173 0.24953,-0.52327 4.42207,-5.91706 9.19065,-11.33288 4.76857,-5.41582 9.48151,-10.07688 10.10671,-10.85181 1.77433,-2.1993 1.15613,-2.14874 3.74721,0.30691 1.29784,1.23001 2.30157,1.98046 2.85379,2.62223 l 1.01259,1.17681 -0.93282,1.40567 c -0.51914,0.78228 -4.28348,5.99472 -8.99121,11.37899 -11.29456,12.91767 -12.04949,12.45428 -14.15102,11.20581 z m -23.128551,-0.4828 C 90.557132,198.06142 79.710196,184.66146 67.317676,170.03662 54.925153,155.41177 43.595315,142.99653 43.360827,142.10371 l -0.957271,-1.40912 -2.112638,0.97095 c -10.139385,4.65994 -21.104499,-8.13016 -19.214868,-19.32746 2.208592,-13.08735 19.039393,-13.349 27.060434,2.25191 2.290708,4.45542 -0.03645,11.55671 -1.248116,12.52295 -0.308678,0.24616 0.825536,0.49097 2.736007,2.52638 3.783917,4.03136 47.289863,51.89271 48.114836,52.8683 2.927889,3.4624 -3.529186,9.62733 -6.562232,6.24502 z M 138.54753,170.616 c -1.16416,-1.03634 -2.95001,-2.46103 -3.23554,-3.09561 l -0.71796,-0.9942 1.15094,-1.50376 c 0.5489,-0.71717 2.46365,-2.57851 3.39434,-3.62669 2.07623,-2.33832 1.7521,-1.78332 5.0133,1.44572 l 3.06,2.56639 -2.668,3.70122 c -1.33522,1.85229 -3.10534,2.92195 -3.19069,2.96991 -0.0854,0.048 -1.64222,-0.42663 -2.80639,-1.46298 z"
         id="path929"
         sodipodi:nodetypes="sssssscsssssscssssssssscssscsss" />
      <path
         style="fill:#616161;stroke-width:0.264583"
         d="m 180.65372,145.01778 c 0,-0.0728 1.01203,-1.13906 2.24896,-2.36956 1.23693,-1.2305 2.24896,-2.17775 2.24896,-2.10499 0,0.0728 -1.01203,1.13907 -2.24896,2.36957 -1.23693,1.2305 -2.24896,2.17774 -2.24896,2.10498 z m -14.81667,-4.08936 c 1.3767,-1.38244 2.56262,-2.51354 2.63539,-2.51354 0.0728,0 -0.99411,1.1311 -2.3708,2.51354 -1.3767,1.38245 -2.56263,2.51355 -2.63539,2.51355 -0.0728,0 0.9941,-1.1311 2.3708,-2.51355 z"
         id="path927" />
      <path
         style="fill:#3d3d3d;stroke-width:0.262119"
         d="m 147.57286,161.85475 c -1.44837,-1.32522 -3.29118,-3.2188 -4.39997,-4.43026 l -2.06877,-2.26033 0.87185,-2.72636 c 2.97767,-8.34756 8.58839,-20.77518 13.47704,-26.79398 0.11755,-0.14472 3.34976,-5.05233 4.01265,-5.91732 1.20495,-1.57232 5.75866,-6.088 7.13683,-7.07722 0.40171,-0.28833 0.98618,-0.74062 1.29885,-1.00509 11.60308,-9.81447 28.38457,-0.99554 25.60484,13.45575 -0.67594,3.51409 -2.16839,6.6433 -5.25779,11.02402 -1.76389,2.50117 -1.67315,2.8595 -5.65458,6.87038 -4.04903,4.079 -7.71718,6.84821 -11.00322,9.10387 -6.50922,4.46816 -9.61271,6.32745 -15.17825,9.09319 -1.58581,0.78806 -3.43006,1.71844 -4.09831,2.0675 -1.49174,0.77922 -1.65276,1.42166 -4.74117,-1.40415 z m 13.60367,-7.46719 c 18.87647,-10.97392 31.05994,-26.05238 28.35239,-35.08936 -0.38325,-1.27918 -0.50959,-1.26869 -1.21112,0.10065 -2.34032,4.56822 -7.24873,10.94069 -14.07171,18.26894 -5.35832,5.75514 -16.90119,16.95378 -20.24309,19.6394 -2.88362,2.31734 0.6139,0.89384 7.17353,-2.91963 z m -10.51457,0.91833 c 0.58559,-0.53882 1.58819,-1.44015 2.22801,-2.00295 12.98712,-11.42384 26.44244,-26.09382 31.21199,-34.02961 6.94681,-11.55841 -5.62449,-1.95896 -18.44335,14.08336 -1.15197,1.44166 -2.2902,2.8571 -2.52938,3.14543 -2.57669,3.10614 -12.52396,17.13737 -13.67786,19.29346 -0.41143,0.76874 0.0425,0.58514 1.21059,-0.48969 z m -0.8586,-6.91099 c 2.38909,-3.53165 7.01445,-9.89463 8.42314,-11.65976 0.58804,-0.73682 1.77688,-2.25785 2.64187,-3.38006 0.865,-1.12221 1.69067,-2.17085 1.83483,-2.33033 0.14418,-0.15947 0.70995,-0.84715 1.25729,-1.52817 0.54735,-0.68101 1.13786,-1.38857 1.31225,-1.57236 0.17441,-0.18379 0.65465,-0.74699 1.06721,-1.25157 2.50544,-3.0642 10.11414,-10.95287 11.96209,-12.40224 0.21775,-0.17079 1.01395,-0.76291 1.7693,-1.3158 1.72177,-1.26028 1.71394,-1.40458 -0.0884,-1.62977 -7.99278,-0.99863 -19.213,9.81306 -27.48876,26.48787 -2.52939,5.09646 -5.92772,13.87994 -6.04474,15.04261 -0.0359,0.35631 0.088,0.36744 1.73903,-2.07326 z"
         id="path925"
         sodipodi:nodetypes="ssccssscssssssssscssssssssssssssssssssssss" />
      <path
         style="fill:#000000;stroke-width:0.264583"
         d="m 92.024717,202.53367 c -2.121866,-0.54765 -3.532204,-1.4855 -4.89267,-3.25353 -0.663938,-0.86283 -1.413719,-1.77527 -1.666179,-2.02764 -0.252463,-0.25237 -0.786379,-0.87067 -1.186482,-1.37401 -0.783601,-0.9858 -2.214462,-2.67885 -4.26384,-5.04514 -0.707922,-0.8174 -1.45869,-1.74328 -1.668372,-2.05752 -0.372658,-0.55848 -0.552268,-0.57399 -7.973288,-0.68813 -11.462552,-0.1763 -14.733762,-2.10258 -17.181801,-10.11761 -0.31778,-1.04043 -0.429982,-3.30532 -0.525449,-10.60678 l -0.121391,-9.28387 -0.834826,-0.92978 c -2.028735,-2.25949 -2.727532,-3.07381 -3.702852,-4.31499 -0.571751,-0.7276 -1.172377,-1.44198 -1.33472,-1.5875 -0.162343,-0.14552 -0.887825,-0.97895 -1.612183,-1.85208 -0.72436,-0.87312 -1.379204,-1.64703 -1.455208,-1.71979 -0.07601,-0.0728 -0.580615,-0.68315 -1.121352,-1.35643 l -0.98316,-1.22413 -1.529524,0.35555 c -12.671458,2.94558 -25.748937,-11.00307 -22.471771,-23.96874 2.368562,-9.3709 12.910099,-14.39408 21.946324,-10.45772 0.46546,0.20276 1.250673,0.48609 1.706184,0.71528 0.449319,0.22608 0.785869,0.44329 0.874661,0.50822 0.118117,0.0864 3.489739,2.60759 3.658271,2.71294 0,0 3.084452,4.01712 4.310474,6.48198 1.874054,3.7677 2.371733,11.92841 1.481443,14.24796 -0.199224,0.51906 -0.06047,1.21067 0.595968,1.80474 0.519629,0.47026 0.522412,0.38516 0.522412,-15.96794 V 105.0863 l -1.269529,-0.64332 C 19.437126,88.283732 36.690922,35.797346 71.976086,41.624567 l 1.887842,0.311771 1.338125,-1.446949 c 14.064478,-15.208288 39.147187,-15.208288 53.211667,0 l 1.33812,1.446949 1.88785,-0.311771 c 35.21858,-5.816225 52.34732,45.331814 20.9682,62.613033 l -1.45521,0.80142 -0.13229,13.84366 -0.1323,13.84366 -1.1016,1.98438 c -0.60588,1.0914 -1.89831,3.77031 -2.87207,5.95312 -0.97376,2.18281 -1.81958,4.02045 -1.8796,4.08364 -0.06,0.0632 -0.0773,-9.50076 -0.0384,-21.25321 l 0.0708,-21.3681 1.16181,-0.79499 c 0.29088,-0.19757 1.3281,-0.85424 1.75051,-1.09464 0.30429,-0.13404 0.695,-0.427945 0.695,-0.427945 0,0 0.44034,-0.289461 0.8906,-0.552047 0.46331,-0.270196 0.6898,-0.38432 0.6898,-0.38432 0,0 0.45149,-0.288351 0.63311,-0.40943 l 0.39688,-0.264583 0.36857,-0.264584 c 0,0 0.29536,-0.22584 0.52086,-0.396875 0.19011,-0.182846 0.45325,-0.396875 0.45325,-0.396875 0,0 0.52328,-0.368527 0.82126,-0.661458 0.33008,-0.324482 0.51493,-0.448846 0.71835,-0.661458 0.21117,-0.220709 2.53222,-2.384899 2.67396,-2.63914 0.0714,-0.128163 0.28548,-0.3094 0.52917,-0.597262 l 0.52916,-0.625065 c 0,0 0.35958,-0.56638 0.66146,-1.008322 0.31655,-0.46342 0.50791,-0.711844 0.66146,-0.945777 0.07,-0.106698 0.16945,-0.270645 0.33872,-0.581681 0.20138,-0.370027 1.21674,-2.094458 2.12938,-4.186087 2.13202,-4.88623 2.38201,-13.100603 0.56964,-18.717699 -0.6731,-2.086158 -2.40835,-5.217499 -2.60697,-5.638335 l -0.14949,-0.316738 c -0.0595,-0.126135 -0.21306,-0.45908 -0.47069,-0.829941 -0.2436,-0.350661 -0.454,-0.70305 -0.56258,-0.853263 -0.10268,-0.14205 -0.24015,-0.352937 -0.37182,-0.546144 -0.10551,-0.15481 -0.33006,-0.461602 -0.33006,-0.461602 -0.0906,-0.138525 -0.40852,-0.494942 -0.72827,-0.829608 -0.30534,-0.319577 -0.67817,-0.773305 -0.67817,-0.773305 0,0 -1.28818,-1.371941 -1.58479,-1.649862 -0.16936,-0.158692 -0.57379,-0.576231 -1.02589,-0.934362 -0.41822,-0.331295 -0.92505,-0.759179 -1.14866,-0.909387 -0.24315,-0.163328 -0.5408,-0.414955 -0.5408,-0.414955 -0.15034,-0.09162 -0.52103,-0.40652 -0.75603,-0.548507 -0.18682,-0.112883 -0.45336,-0.319276 -0.58062,-0.389867 -0.21715,-0.120463 -0.62601,-0.408537 -0.80613,-0.531852 -0.2684,-0.183748 -0.84789,-0.44253 -0.98152,-0.560222 0,0 -0.25533,-0.09031 -0.59465,-0.250161 -0.38885,-0.183184 -1.01225,-0.477086 -1.01225,-0.477086 -0.10647,-0.07414 -0.96919,-0.339041 -1.16975,-0.419648 -0.20781,-0.08352 -1.15472,-0.349194 -1.4004,-0.453088 -0.61262,-0.25907 -10.9382,-2.435169 -10.9382,-1.034722 0,0.352238 0.27752,1.055024 0.61672,1.561747 2.64041,3.944502 5.05616,15.458984 3.76652,17.952867 -1.65635,3.203038 -5.43291,1.483466 -5.44546,-2.479469 -0.009,-2.911107 -0.97041,-7.734757 -2.02983,-10.186458 -0.87426,-2.023213 -1.881,-3.793923 -2.12548,-4.186087 0,0 -0.20769,-0.510049 -0.32691,-0.680357 -0.26458,-0.377976 -0.0118,-0.04725 -0.27639,-0.425223 0,0 -0.14351,-0.215254 -0.26459,-0.396875 l -0.26458,-0.396875 -0.26458,-0.368567 c -0.11821,-0.164675 -0.39688,-0.520863 -0.39688,-0.520863 -0.20647,-0.190066 -0.24332,-0.305986 -0.39687,-0.49383 0,0 -0.30466,-0.412515 -0.52917,-0.672004 -0.20836,-0.240817 -0.52917,-0.568313 -0.52917,-0.568313 -0.2008,-0.310721 -3.14998,-3.112212 -3.14998,-3.112212 0,0 -1.06982,-0.958007 -1.52827,-1.36995 l -0.94248,-0.846867 -0.61115,-0.482133 c 0,0 -0.64689,-0.48177 -1.02814,-0.698111 l -1.02526,-0.581778 c -0.78738,-0.446795 -3.55498,-1.89869 -3.55498,-1.89869 -0.13281,0 -1.26968,-0.420625 -2.00927,-0.65649 -4.86224,-1.55064 -15.272181,-1.737752 -19.916491,0.377976 -0.62147,0.283112 -1.238613,0.514749 -1.371431,0.514749 -0.319934,0 -3.279442,1.351867 -4.088038,1.852139 -0.303624,0.187849 -0.52484,0.325972 -1.015336,0.676764 -0.14081,0.100703 -0.167044,0.100226 -0.634095,0.497101 -0.178163,0.151393 -0.626008,0.463692 -0.626008,0.463692 -0.425079,0.300678 -0.397061,0.307074 -0.875036,0.743637 -0.477975,0.436562 -1.050166,0.79375 -1.050166,0.79375 L 78.25993,45.83297 c 0,0 -0.254829,0.25292 -0.529167,0.568313 -0.225197,0.258898 -0.529167,0.672004 -0.529167,0.672004 l -0.396875,0.49383 c -0.146461,0.18224 -0.396875,0.520863 -0.396875,0.520863 l -0.264583,0.368567 -0.264583,0.396875 -0.264584,0.396875 -0.314696,0.511611 c -0.108918,0.17707 -0.288604,0.593969 -0.288604,0.593969 -0.218218,0.3967 -1.251222,2.162874 -2.125483,4.186087 -1.059418,2.451701 -2.020614,7.275351 -2.02983,10.186458 -0.01254,3.962935 -3.789108,5.682507 -5.445464,2.479469 -1.289637,-2.493883 1.126109,-14.008365 3.766524,-17.952867 0.339196,-0.506723 0.61672,-1.209509 0.61672,-1.561747 0,-1.400447 -9.467352,-0.08236 -13.193288,1.711248 -0.822168,0.395779 -1.583279,0.791218 -1.751187,0.879048 l -0.259371,0.135675 c 0,0 -0.473053,0.235438 -0.82015,0.485438 -0.304358,0.219217 -0.586289,0.383796 -0.586289,0.383796 0,0 -0.296693,0.227013 -0.45534,0.343065 -0.201607,0.147477 -0.27609,0.183422 -0.396875,0.264583 -0.141987,0.09541 -0.368567,0.264584 -0.368567,0.264584 -0.163141,0.120323 -0.324118,0.249862 -0.520864,0.396875 0,0 -0.3005,0.266946 -0.442265,0.396875 -0.117571,0.107755 -0.523902,0.37609 -0.987392,0.752409 -0.423167,0.343579 -0.766383,0.675632 -0.962222,0.835091 -0.309662,0.252138 -1.570498,1.572772 -1.745773,1.781212 -0.121809,0.144858 -0.477195,0.500244 -0.642787,0.720807 -0.173548,0.23116 -0.659879,0.801738 -0.827208,0.978653 -0.141126,0.149213 -0.373786,0.488078 -0.373786,0.488078 0,0 -0.164308,0.156144 -0.272886,0.346985 -0.09437,0.165873 -0.396816,0.602581 -0.587632,0.881571 -0.241036,0.352417 -0.663768,1.18561 -0.625209,1.119581 l 0.109419,-0.187372 c 0.234532,-0.401617 -3.178357,6.617409 -3.670431,9.664888 -1.029319,6.374701 0.904818,15.664252 3.329001,18.933012 l 0.651102,0.877943 0.264583,0.377976 c 0.08345,0.119215 0.264584,0.368567 0.264584,0.368567 l 0.396875,0.520864 c 0.141699,0.185967 0.396875,0.493829 0.396875,0.493829 0,0 0.238125,0.373317 0.529166,0.672005 0.239466,0.245759 0.529167,0.663732 0.529167,0.663732 0,0 0.600983,0.767203 1.335516,1.501737 0.734534,0.734533 1.585259,1.335516 1.585259,1.335516 l 0.58021,0.529167 c 0.253528,0.231224 0.672005,0.529166 0.672005,0.529166 l 0.493829,0.396875 0.520864,0.396875 c 0.161238,0.122856 0,0 0.368567,0.264584 0.118214,0.08486 0.396875,0.264583 0.396875,0.264583 l 0.396875,0.264583 0.377976,0.264584 c 0.170308,0.119216 0.736079,0.458326 0.736079,0.458326 0,0 1.099679,0.577159 1.924391,0.885719 2.727256,1.0204 2.515677,-0.931541 2.516814,23.21896 l 0.0011,20.99113 1.653646,1.74299 c 0.909505,0.95865 1.832239,1.94073 2.05052,2.18241 0.218282,0.24169 1.152949,1.23297 2.077038,2.20286 l 1.68016,1.76344 h 37.916863 37.91687 l -0.43592,1.36318 -0.43593,1.36318 2.23386,2.01025 c 1.22862,1.10565 3.43003,3.09198 4.89202,4.41409 l 2.83356,2.36206 -0.1012,5.44314 c -0.1721,9.25696 -2.11551,14.77269 -6.63498,17.16458 0,0 -0.58196,0.32938 -0.89794,0.44219 -0.80959,0.28902 -2.8382,0.96024 -7.16458,1.08803 l -4.56911,0.13495 -1.34825,1.6202 c -7.31689,8.79275 -9.35392,10.81785 -11.6119,11.54389 -7.53238,2.42198 -13.4684,-6.81324 -8.12168,-12.63568 0.54667,-0.59531 0.54667,-0.59531 -5.18799,-0.59531 -5.22972,0 -6.329309,0.13042 -5.487235,0.65085 6.335745,3.91571 -0.433697,15.65693 -7.913929,13.72627 z m 25.336753,-3.97599 c 1.11634,-0.69439 20.58599,-22.41816 20.89543,-23.31463 0.0378,-0.10963 -1.29348,-1.41353 -2.95851,-2.89755 l -3.02731,-2.69821 -9.47691,10.73854 c -12.35193,13.99632 -11.72596,13.11402 -10.70703,15.09147 1.2963,2.51575 3.81612,3.9874 5.27433,3.08038 z m -21.828939,-0.18209 c 2.845972,-1.21771 3.382647,-4.10359 1.196176,-6.43221 -0.794195,-0.84583 -12.412504,-13.46354 -25.818465,-28.03935 l -24.374478,-26.50148 0.492958,-1.0203 c 6.752154,-13.97535 -11.912849,-29.93273 -22.557617,-19.28532 -9.89707,9.89953 3.171174,28.27543 16.990631,23.89136 0.788733,-0.25022 1.455787,-0.42558 1.482344,-0.3897 1.104921,1.49311 47.63635,56.25745 48.557688,57.14911 1.147741,1.11076 2.433947,1.31113 4.030763,0.62789 z M 71.645386,181.00331 c 0,-0.24524 -2.687526,-3.52622 -7.264413,-8.86853 -0.87952,-1.02661 -2.492097,-2.96125 -3.583503,-4.29921 l -1.984375,-2.43266 -0.07192,5.04326 c -0.09556,6.70128 0.400675,8.20303 3.315444,10.03343 1.327174,0.83344 9.588764,1.28466 9.588764,0.52371 z m 47.929524,-2.5702 c 1.38735,-1.56435 3.2742,-3.73724 4.19299,-4.82864 0.9188,-1.09141 1.80421,-2.10344 1.96758,-2.24896 0.16338,-0.14552 1.4735,-1.6338 2.91138,-3.30729 1.43788,-1.67349 3.41416,-3.93568 4.39174,-5.02709 0.97757,-1.0914 2.10023,-2.37133 2.49478,-2.84427 l 0.71738,-0.85989 h -31.77352 c -17.475437,0 -31.77352,0.0534 -31.77352,0.11866 0,0.13224 -0.0528,0.0744 4.365625,4.78102 1.74625,1.86014 3.472656,3.70165 3.836458,4.09225 2.589056,2.77971 6.91297,7.39791 7.728061,8.25403 0.539652,0.56681 1.717847,1.85944 2.618211,2.87251 l 1.637022,1.84194 h 12.081683 12.08168 z m 21.59854,2.20644 c 1.52502,-0.77943 2.80281,-2.07368 3.35546,-3.39868 0.51568,-1.23636 0.86998,-4.28092 0.48123,-4.13529 -0.34007,0.12741 -6.9412,7.70184 -6.94879,7.97337 -0.0122,0.43615 1.93767,0.16085 3.1121,-0.4394 z m 1.6737,-10.45058 c 0.7845,-0.93265 1.99993,-2.38423 2.70095,-3.22574 l 1.2746,-1.53003 -1.01001,-0.90294 c -0.55551,-0.49663 -1.90298,-1.69166 -2.99439,-2.65564 l -1.98437,-1.75268 -2.96448,3.10324 c -1.63047,1.70678 -2.96992,3.18202 -2.97656,3.27829 -0.0164,0.23793 6.16405,5.52237 6.36676,5.44372 0.0886,-0.0344 0.803,-0.82558 1.5875,-1.75822 z m 6.44873,-14.15386 c 1.77245,-2.94624 1.72064,-2.85619 1.73286,-2.23255 0.0274,1.39485 0.14005,1.20485 -0.22425,1.54224 -1.13178,1.04816 -1.94488,1.41552 -1.50861,0.69031 z m -3.03799,-2.86143 c 0,-0.66993 3.52759,-10.01044 4.35822,-11.53987 0.35475,-0.65321 0.38387,-0.4945 0.39368,2.14546 l 0.0106,2.85085 -2.12474,3.1578 c -1.82412,2.71102 -2.63775,3.75538 -2.63775,3.38576 z M 74.780606,113.52769 c -5.536583,-5.8972 -10.983759,-18.261212 -9.397079,-21.329511 1.462548,-2.828258 5.222557,-1.601887 5.469586,1.687417 0.151939,1.048389 0.370041,2.640095 0.977984,4.048035 0.71528,1.656522 2.051729,4.465399 2.166106,4.648259 0.25451,0.40688 1.33534,2.11727 1.491944,2.36098 0.09605,0.14948 0.852391,1.36775 1.003702,1.52573 0.106331,0.11102 0.377832,0.47117 0.536486,0.66796 0.531107,0.65876 0.545906,0.67059 0.875447,1.05351 0.647875,0.75283 2.764349,4.51666 1.161101,5.94929 -1.385854,1.23837 -2.728273,1.04675 -4.285277,-0.61167 z m 24.047595,-0.93006 -0.04766,-5.02556 -0.05012,-6.10143 c -0.08465,-10.306446 0.729987,-11.958509 3.444969,-11.847377 2.43518,0.09968 2.87473,0.849481 2.94381,12.114647 l -0.0668,11.09603 -0.13119,2.03547 c -0.12706,1.97159 -5.471094,2.38591 -5.892551,-0.16703 z m 25.721689,1.54173 c -1.59705,-1.42709 -1.22818,-3.35423 1.13434,-5.92616 0.32869,-0.35782 0.73773,-0.98555 0.97066,-1.35957 0.26365,-0.42335 0.6626,-0.89754 0.84386,-1.16699 0.19474,-0.28946 0.63295,-0.91212 0.9588,-1.42627 0.26923,-0.4248 0.60232,-0.96825 0.60232,-0.96825 0,0 0.20621,-0.31208 0.29809,-0.52832 0.0813,-0.19134 0.18583,-0.39332 0.30531,-0.64408 0.19983,-0.41937 1.26906,-2.19834 2.1233,-4.186089 0.60744,-1.413467 0.97446,-2.93556 0.97609,-4.048035 0.005,-3.280952 4.00704,-4.515675 5.46959,-1.687417 1.27753,2.47047 -1.39035,9.855191 -6.13354,16.977711 -3.79714,5.70191 -5.48238,6.80999 -7.54882,4.96347 z"
         id="path923"
         sodipodi:nodetypes="ssssssssscsssssscsssssssssscsscsscsscccssscccccscsccccsssscsssssssssssscssscssscssssscscssscscssssscsccssssssssscsccscsccscssssssssscscsssssssssscsssssscscscscscsccssscscsccssscccccsscsssscsssssssscscsssssscssscssssscsssssssssscsssssscccsssssssscsscssssssssssscssssscssssssssscssscscssssscssscssss" />
    </g>
  </g>
</svg>
