<?xml version="1.0" encoding="UTF-8" standalone="no"?>
<!-- Created with Inkscape (http://www.inkscape.org/) -->

<svg
   xmlns:dc="http://purl.org/dc/elements/1.1/"
   xmlns:cc="http://creativecommons.org/ns#"
   xmlns:rdf="http://www.w3.org/1999/02/22-rdf-syntax-ns#"
   xmlns:svg="http://www.w3.org/2000/svg"
   xmlns="http://www.w3.org/2000/svg"
   xmlns:sodipodi="http://sodipodi.sourceforge.net/DTD/sodipodi-0.dtd"
   xmlns:inkscape="http://www.inkscape.org/namespaces/inkscape"
   width="21.31908mm"
   height="9.4009762mm"
   viewBox="0 0 21.31908 9.4009762"
   version="1.1"
   id="svg8"
   sodipodi:docname="CookBook.svg"
   inkscape:version="0.92.4 (5da689c313, 2019-01-14)">
  <defs
     id="defs2" />
  <sodipodi:namedview
     id="base"
     pagecolor="#ffffff"
     bordercolor="#666666"
     borderopacity="1.0"
     inkscape:pageopacity="0.0"
     inkscape:pageshadow="2"
     inkscape:zoom="15.839192"
     inkscape:cx="38.519249"
     inkscape:cy="29.909644"
     inkscape:document-units="mm"
     inkscape:current-layer="layer5"
     showgrid="false"
     inkscape:window-width="1920"
     inkscape:window-height="986"
     inkscape:window-x="-11"
     inkscape:window-y="-11"
     inkscape:window-maximized="1" />
  <metadata
     id="metadata5">
    <rdf:RDF>
      <cc:Work
         rdf:about="">
        <dc:format>image/svg+xml</dc:format>
        <dc:type
           rdf:resource="http://purl.org/dc/dcmitype/StillImage" />
        <dc:title></dc:title>
      </cc:Work>
    </rdf:RDF>
  </metadata>
  <g
     inkscape:label="Ebene 1"
     inkscape:groupmode="layer"
     id="layer1"
     transform="translate(-32.170323,-12.466438)">
    <g
       aria-label="C"
       transform="scale(1.0258349,0.97481573)"
       style="font-style:normal;font-variant:normal;font-weight:normal;font-stretch:normal;font-size:12.61238861px;line-height:1.25;font-family:'Arial Rounded MT Bold';-inkscape-font-specification:'Arial Rounded MT Bold, ';letter-spacing:0px;word-spacing:0px;fill:#000000;fill-opacity:1;stroke:none;stroke-width:0.26275811"
       id="text817" />
  </g>
  <g
     inkscape:groupmode="layer"
     id="layer2"
     inkscape:label="Ebene 2"
     transform="translate(-32.170323,-12.466438)">
    <g
       aria-label="B"
       transform="scale(1.0258349,0.97481573)"
       style="font-style:normal;font-variant:normal;font-weight:normal;font-stretch:normal;font-size:6.30619431px;line-height:1.25;font-family:'Arial Rounded MT Bold';-inkscape-font-specification:'Arial Rounded MT Bold, ';letter-spacing:0px;word-spacing:0px;fill:#000000;fill-opacity:1;stroke:none;stroke-width:0.26275811"
       id="text822" />
  </g>
  <g
     inkscape:groupmode="layer"
     id="layer3"
     inkscape:label="Ebene 3"
     transform="translate(-32.170323,-12.466438)" />
  <g
     inkscape:groupmode="layer"
     id="layer4"
     inkscape:label="Ebene 4"
     style="display:inline"
     transform="translate(-32.170323,-12.466438)">
    <g
       aria-label="O"
       transform="scale(1.0258349,0.97481573)"
       style="font-style:normal;font-variant:normal;font-weight:normal;font-stretch:normal;font-size:6.30619431px;line-height:1.25;font-family:'Arial Rounded MT Bold';-inkscape-font-specification:'Arial Rounded MT Bold, ';letter-spacing:0px;word-spacing:0px;fill:#000000;fill-opacity:1;stroke:none;stroke-width:0.26275811"
       id="text832" />
  </g>
  <g
     inkscape:groupmode="layer"
     id="layer5"
     inkscape:label="Ebene 5"
     style="display:inline"
     transform="translate(-32.170323,-12.466438)">
    <g
       aria-label="K"
       transform="scale(1.0258349,0.97481573)"
       style="font-style:normal;font-variant:normal;font-weight:normal;font-stretch:normal;font-size:6.30619431px;line-height:1.25;font-family:'Arial Rounded MT Bold';-inkscape-font-specification:'Arial Rounded MT Bold, ';letter-spacing:0px;word-spacing:0px;fill:#000000;fill-opacity:1;stroke:none;stroke-width:0.26275811"
       id="text865">
      <path
         id="path903"
         style="stroke-width:0.26275811"
         d="m 49.095476,15.711701 v 1.582707 l 1.795172,-1.872151 q 0.129326,-0.135485 0.218623,-0.200148 0.09238,-0.06466 0.243256,-0.06466 0.197069,0 0.317157,0.117009 0.123168,0.11393 0.123168,0.280207 0,0.200148 -0.206306,0.397216 l -1.11159,1.053086 1.280946,1.835201 q 0.135485,0.19091 0.203227,0.335632 0.06774,0.141643 0.06774,0.277128 0,0.15088 -0.120088,0.261731 -0.11701,0.110851 -0.320237,0.110851 -0.19091,0 -0.310999,-0.08006 -0.120088,-0.08314 -0.203227,-0.218623 -0.08314,-0.135484 -0.147801,-0.246335 l -1.080798,-1.662766 -0.748245,0.717452 v 0.932997 q 0,0.283286 -0.129326,0.42185 -0.129326,0.135484 -0.332553,0.135484 -0.11701,0 -0.224782,-0.06158 -0.107771,-0.06158 -0.166276,-0.166277 -0.04311,-0.08622 -0.05235,-0.200148 -0.0092,-0.11393 -0.0092,-0.329474 v -3.356324 q 0,-0.277128 0.120089,-0.415692 0.123167,-0.138563 0.332553,-0.138563 0.206306,0 0.332553,0.138563 0.129326,0.135485 0.129326,0.415692 z m -3.211449,-0.56429 q 0.702056,0 1.203965,0.286365 0.504989,0.283286 0.763641,0.809829 0.258653,0.523463 0.258653,1.231679 0,0.523463 -0.141643,0.951471 -0.141643,0.428009 -0.42493,0.742087 -0.283286,0.314078 -0.695898,0.480354 -0.412612,0.166277 -0.945313,0.166277 -0.529622,0 -0.948393,-0.169356 -0.41877,-0.172435 -0.698977,-0.483434 -0.280207,-0.310999 -0.424929,-0.748245 -0.141643,-0.437245 -0.141643,-0.945313 0,-0.520384 0.147801,-0.954551 0.150881,-0.434166 0.434167,-0.739007 0.283286,-0.30484 0.68974,-0.464959 0.406454,-0.163197 0.923759,-0.163197 z m 1.29942,2.321714 q 0,-0.49575 -0.160118,-0.859096 -0.160118,-0.363345 -0.4588,-0.548097 -0.295603,-0.187831 -0.680502,-0.187831 -0.274049,0 -0.508068,0.104693 -0.23094,0.101614 -0.400295,0.298682 -0.166277,0.197069 -0.264811,0.504988 -0.09546,0.304841 -0.09546,0.686661 0,0.3849 0.09546,0.695899 0.09853,0.310998 0.274048,0.517305 0.178594,0.203227 0.406454,0.30484 0.23094,0.101614 0.504988,0.101614 0.351029,0 0.643552,-0.175515 0.295603,-0.175514 0.468038,-0.541938 0.175514,-0.366425 0.175514,-0.902205 z m -5.820331,-2.311788 c -0.34487,0 -0.652792,0.05441 -0.923761,0.163199 -0.27097,0.106744 -0.500886,0.26173 -0.689742,0.464957 -0.188858,0.203228 -0.333577,0.449563 -0.434165,0.739007 -0.09854,0.289447 -0.147801,0.607628 -0.147801,0.954553 0,0.338711 0.0472,0.653814 0.14164,0.945312 0.09647,0.291497 0.238126,0.540912 0.424931,0.748245 0.186807,0.207333 0.419797,0.368477 0.698981,0.483434 0.279177,0.112902 0.595307,0.169356 0.948391,0.169356 0.355131,0 0.670235,-0.05544 0.945313,-0.166276 0.275077,-0.110852 0.50704,-0.270971 0.695899,-0.480356 0.188857,-0.209386 0.3305,-0.456748 0.424927,-0.742087 0.09444,-0.285338 0.141646,-0.602494 0.141646,-0.95147 0,-0.472143 -0.08622,-0.882705 -0.258656,-1.23168 -0.172433,-0.351028 -0.426979,-0.620971 -0.763637,-0.809829 -0.334609,-0.190911 -0.73593,-0.286365 -1.203966,-0.286365 z m 0,0.726691 c 0.256597,0 0.483433,0.06262 0.6805,0.18783 0.199122,0.123169 0.352055,0.305868 0.4588,0.548096 0.106748,0.242232 0.160122,0.528599 0.160122,0.859099 0,0.357187 -0.05851,0.657919 -0.175515,0.902204 -0.114957,0.244282 -0.270972,0.424928 -0.468042,0.541938 -0.195014,0.11701 -0.409532,0.175514 -0.64355,0.175514 -0.182698,0 -0.351026,-0.03388 -0.504987,-0.101609 -0.151911,-0.06776 -0.287394,-0.169356 -0.406458,-0.304841 -0.117007,-0.137538 -0.208357,-0.309974 -0.274044,-0.517305 -0.06364,-0.207334 -0.09545,-0.439299 -0.09545,-0.695898 0,-0.254548 0.03182,-0.483435 0.09545,-0.686663 0.06569,-0.20528 0.153956,-0.373609 0.264811,-0.504989 0.112905,-0.131377 0.246335,-0.230939 0.400294,-0.29868 0.156014,-0.06979 0.32537,-0.104693 0.508069,-0.104693 z m 11.270375,3.852589 c -5.27e-4,9.44e-4 -5.27e-4,0.0022 -0.0011,0.0032 -0.0035,0.0074 0.01269,0.03363 0.0011,-0.0032 z M 36.26887,19.669304 h -1.37948 q -0.298682,0 -0.428009,-0.132406 -0.126247,-0.135484 -0.126247,-0.428008 v -3.393274 q 0,-0.298682 0.129327,-0.428009 0.132405,-0.132405 0.424929,-0.132405 h 1.462618 q 0.323316,0 0.560414,0.04003 0.237098,0.04003 0.424929,0.15396 0.160118,0.09546 0.283286,0.243257 0.123168,0.144722 0.187831,0.323315 0.06466,0.175515 0.06466,0.372583 0,0.677423 -0.677423,0.991501 0.889888,0.283287 0.889888,1.102353 0,0.378741 -0.19399,0.683581 -0.193989,0.301762 -0.523463,0.446484 -0.206306,0.08622 -0.474196,0.123168 -0.26789,0.03387 -0.625077,0.03387 z m -0.06774,-2.004557 h -0.951471 v 1.317896 h 0.982263 q 0.926839,0 0.926839,-0.668186 0,-0.34179 -0.240178,-0.49575 -0.240177,-0.15396 -0.717453,-0.15396 z m -0.951471,-1.822884 v 1.167015 H 36.0872 q 0.341791,0 0.526543,-0.06466 0.187831,-0.06466 0.286365,-0.246336 0.07698,-0.129326 0.07698,-0.289444 0,-0.341791 -0.243257,-0.452642 -0.243256,-0.11393 -0.742086,-0.11393 z m 4.274633,3.488259 q 0,0.431087 -0.215544,0.936075 -0.209385,0.49883 -0.665106,0.985343 -0.455721,0.480355 -1.163936,0.782116 -0.708216,0.301761 -1.65045,0.301761 -0.714373,0 -1.299421,-0.135484 -0.585047,-0.135485 -1.065402,-0.418771 -0.474196,-0.289444 -0.874491,-0.757482 -0.357187,-0.424929 -0.609681,-0.948393 -0.252494,-0.529622 -0.381821,-1.126986 -0.123167,-0.597364 -0.123167,-1.268629 0,-1.090035 0.314078,-1.95221 0.320236,-0.862175 0.911442,-1.471856 0.591205,-0.615839 1.385638,-0.936076 0.794433,-0.320236 1.693558,-0.320236 1.096194,0 1.952211,0.437246 0.856016,0.437246 1.311737,1.083877 0.455721,0.640473 0.455721,1.213203 0,0.314078 -0.221702,0.554256 -0.221702,0.240177 -0.53578,0.240177 -0.351028,0 -0.529622,-0.166277 -0.172435,-0.166276 -0.387978,-0.57273 -0.357187,-0.671265 -0.8437,-1.003818 -0.480355,-0.332554 -1.18857,-0.332554 -1.126986,0 -1.798251,0.856017 -0.665106,0.856017 -0.665106,2.432565 0,1.053085 0.295603,1.755142 0.295603,0.695899 0.837541,1.040769 0.541939,0.34487 1.268629,0.34487 0.788274,0 1.330213,-0.387979 0.548097,-0.394137 0.825225,-1.15162 0.117009,-0.357186 0.289444,-0.578889 0.172435,-0.22786 0.554255,-0.22786 0.326395,0 0.560414,0.22786 0.234019,0.227861 0.234019,0.566573 z" />
    </g>
  </g>
</svg>
