<?xml version="1.0" encoding="UTF-8" standalone="no"?>
<svg
   xmlns:dc="http://purl.org/dc/elements/1.1/"
   xmlns:cc="http://creativecommons.org/ns#"
   xmlns:rdf="http://www.w3.org/1999/02/22-rdf-syntax-ns#"
   xmlns:svg="http://www.w3.org/2000/svg"
   xmlns="http://www.w3.org/2000/svg"
   xmlns:sodipodi="http://sodipodi.sourceforge.net/DTD/sodipodi-0.dtd"
   xmlns:inkscape="http://www.inkscape.org/namespaces/inkscape"
   width="182.81235mm"
   height="177.13243mm"
   viewBox="0 0 182.81234 177.13243"
   version="1.1"
   id="svg8"
   inkscape:version="1.0.2 (e86c870879, 2021-01-15, custom)"
   sodipodi:docname="drawing-8.svg">
  <defs
     id="defs2" />
  <sodipodi:namedview
     id="base"
     pagecolor="#ffffff"
     bordercolor="#666666"
     borderopacity="1.0"
     inkscape:pageopacity="0.0"
     inkscape:pageshadow="2"
     inkscape:zoom="2.8"
     inkscape:cx="330.50637"
     inkscape:cy="503.73179"
     inkscape:document-units="mm"
     inkscape:current-layer="layer1"
     inkscape:document-rotation="0"
     showgrid="false"
     fit-margin-left="0"
     fit-margin-right="0"
     fit-margin-top="0.1"
     fit-margin-bottom="0.1"
     inkscape:window-width="1920"
     inkscape:window-height="986"
     inkscape:window-x="-11"
     inkscape:window-y="-11"
     inkscape:window-maximized="1" />
  <metadata
     id="metadata5">
    <rdf:RDF>
      <cc:Work
         rdf:about="">
        <dc:format>image/svg+xml</dc:format>
        <dc:type
           rdf:resource="http://purl.org/dc/dcmitype/StillImage" />
        <dc:title></dc:title>
      </cc:Work>
    </rdf:RDF>
  </metadata>
  <g
     inkscape:label="Layer 1"
     inkscape:groupmode="layer"
     id="layer1"
     transform="translate(-25.235258,-56.295821)">
    <path
       id="path884"
       style="opacity:0.501683;fill:#ffffff;fill-opacity:1;stroke-width:0.188988"
       sodipodi:type="inkscape:offset"
       inkscape:radius="0"
       inkscape:original="M 113.80469 61.666016 C 111.07887 61.624849 108.44084 61.853215 106.37109 62.414062 C 102.40213 63.48955 98.555245 65.203338 95.441406 67.296875 C 92.780404 69.085956 89.432295 72.495058 87.574219 75.285156 C 84.432802 80.00233 82.271212 86.035586 81.734375 91.599609 C 81.592942 93.065459 81.500952 93.818286 81.417969 94.134766 C 81.334989 94.451236 81.356254 94.377921 81.025391 94.744141 C 80.54858 95.271921 80.157553 95.417063 79.769531 95.408203 C 79.381509 95.399203 78.882594 95.202195 78.300781 94.609375 L 77.820312 94.121094 L 77.925781 92.052734 C 78.177009 87.047993 79.239638 82.645861 81.162109 78.580078 C 81.477905 77.912209 81.763463 77.26902 81.976562 76.751953 C 82.083112 76.493421 82.170328 76.267775 82.238281 76.074219 C 82.272251 75.977439 82.302145 75.88919 82.328125 75.794922 C 82.354105 75.700652 82.392578 75.646454 82.392578 75.373047 C 82.392578 75.283397 82.392979 75.134301 82.324219 74.917969 C 82.255479 74.701638 82.081174 74.435452 81.878906 74.279297 C 81.474363 73.966986 81.183647 73.977401 80.908203 73.955078 C 80.357314 73.910428 79.641276 73.941136 78.234375 73.992188 C 72.937065 74.184421 68.432815 75.648411 64.046875 78.605469 C 59.454182 81.701922 56.669951 85.023938 53.769531 90.820312 C 52.079827 94.197114 51.459123 95.953713 51.203125 98.1875 C 50.937602 100.50436 50.921494 105.79476 51.214844 107.82422 C 51.841224 112.15772 54.883414 118.22395 58.183594 121.92188 C 60.518727 124.53843 63.899539 127.08049 67.220703 128.73242 C 68.082168 129.16091 68.567698 129.30965 68.650391 129.38086 C 68.733081 129.45206 68.901221 129.64994 69.041016 130.84375 C 69.320609 133.23137 69.282173 138.80139 69.337891 151.20117 L 69.433594 172.23047 A 1.1403959 1.1403959 0 0 0 69.724609 172.98828 L 73.197266 176.85742 L 76.669922 180.72852 A 1.1403959 1.1403959 0 0 0 77.517578 181.10742 L 115.35156 181.10742 L 153.18555 181.10742 A 1.1403959 1.1403959 0 0 0 154.21484 180.45898 L 154.55469 179.75 C 154.77192 179.29669 155.55212 177.57296 156.3457 175.80273 L 157.78711 172.58984 A 1.1403959 1.1403959 0 0 0 157.88672 172.12305 L 157.88867 151.14453 C 157.89067 141.56416 157.89871 136.30654 157.94141 133.39844 C 157.98401 130.49034 158.19189 129.91779 158.0625 130.15234 C 158.2454 129.82078 158.37069 129.66428 158.68359 129.42188 C 158.99649 129.17947 159.52137 128.8734 160.37695 128.44922 C 167.52065 124.90757 172.91508 118.2865 175.46094 110.03125 C 175.70968 109.22471 175.87496 108.62486 175.94727 107.69141 C 176.01957 106.75797 176.02089 105.49244 176.02539 103.05078 C 176.03669 96.89373 175.81485 95.799201 173.9375 92.019531 C 171.92656 87.9709 170.48844 85.946648 167.49219 82.953125 C 161.79382 77.25994 156.14181 74.696606 148.51953 74.375 L 145.71875 74.257812 A 1.1403959 1.1403959 0 0 0 144.65625 75.919922 L 145.6875 77.919922 C 147.77024 81.963494 149.28125 88.393526 149.28125 93.308594 L 149.28125 94.185547 L 148.73438 94.697266 C 148.26787 95.133566 147.93013 95.318356 147.70508 95.378906 C 147.47996 95.439506 147.31286 95.436356 146.95117 95.285156 C 146.42713 95.066196 145.88614 94.56161 145.75 94.34375 C 145.746 94.33205 145.74323 94.328706 145.74023 94.316406 C 145.71763 94.216706 145.6874 94.060853 145.6582 93.876953 C 145.5998 93.509173 145.54023 93.022669 145.49805 92.537109 C 145.29968 90.253368 144.78427 87.960543 143.82617 85.023438 C 139.91696 73.039597 132.4343 65.420984 121.68555 62.634766 C 119.33186 62.024659 116.53256 61.70745 113.80664 61.666016 L 113.80469 61.666016 z M 79.966797 119.07617 C 81.514763 119.56648 83.661192 127.08543 81.623047 121.82031 C 82.053415 125.58654 84.611206 130.52434 88.822266 136.31836 C 90.152118 138.14811 90.758932 139.28981 90.841797 139.78516 C 90.883227 140.03285 90.865364 140.10878 90.771484 140.28711 C 90.677604 140.46543 90.450124 140.74164 90.046875 141.0957 C 89.77109 141.33784 89.733641 141.34801 89.691406 141.36133 C 89.649166 141.37463 89.435282 141.40625 88.914062 141.40625 C 88.222014 141.40625 88.188939 141.41697 87.908203 141.20703 C 87.627467 140.99705 87.073846 140.35833 86.113281 139.08594 C 83.219599 135.25287 80.808318 130.93334 79.359375 127.32227 C 78.634903 125.51672 78.152978 123.88338 77.960938 122.62305 C 77.768899 121.36272 77.947475 120.51893 78.083984 120.31836 C 78.506688 119.69728 78.90764 119.42035 79.353516 119.35547 C 79.53628 119.08088 79.745659 119.00613 79.966797 119.07617 z M 147.2207 119.35938 C 148.88695 119.74353 148.62141 119.52864 149.11133 120.43555 C 149.44557 121.2355 149.16443 123.94878 147.84766 127.23047 C 146.53088 130.51216 144.36429 134.44033 141.64648 138.24805 C 141.20524 138.86622 140.71805 139.50645 140.30078 140.02734 C 139.88351 140.54823 139.48378 140.98862 139.42578 141.04102 C 139.10374 141.33197 139.04702 141.35609 139.01953 141.36523 C 138.99203 141.37423 138.77313 141.40625 138.20508 141.40625 C 137.59879 141.40625 137.41435 141.37085 137.42969 141.37695 C 137.44499 141.38295 137.33933 141.3198 136.94727 140.92773 C 136.32916 140.30961 136.27001 140.1545 136.30469 139.8125 C 136.33939 139.47051 136.69507 138.6681 137.58594 137.37891 C 142.95641 129.60722 144.87044 125.92439 145.50195 121.83789 C 145.63637 120.96813 145.79664 120.45931 145.95117 120.1875 C 146.10569 119.91569 146.23414 119.79566 146.64453 119.58984 C 146.9624 119.43043 147.11989 119.37788 147.2207 119.35938 z M 113.8418 119.42578 C 115.79649 118.93148 115.96284 125.37136 115.52734 122.3457 C 115.62184 123.97683 115.63341 126.71539 115.60352 131.31445 L 115.54883 139.875 L 115.26172 140.36914 C 115.10882 140.63302 114.62915 141.1526 114.63477 141.14844 C 114.76445 141.05244 114.22721 141.29325 113.74219 141.34375 C 113.25718 141.39425 112.68003 141.28442 112.78125 141.32812 C 112.91947 141.38772 112.47614 141.09055 112.19336 140.75586 C 111.92542 140.43874 111.72554 140.04231 111.71875 140.05469 C 111.71275 140.01909 111.70708 139.99268 111.70508 139.95898 C 111.69708 139.81554 111.68613 139.60135 111.67773 139.33398 C 111.66103 138.79924 111.64747 138.04641 111.63477 137.13867 C 111.60917 135.32321 111.59295 132.88353 111.59375 130.26367 C 111.59575 124.93083 111.60128 122.29215 111.74414 121.05469 C 111.81564 120.43596 111.90912 120.23317 111.95898 120.15625 C 112.00888 120.07935 112.11617 119.98768 112.46875 119.71875 C 112.81305 119.45615 113.32058 119.34264 113.8418 119.42578 z "
       d="m 113.80469,61.666016 c -2.72582,-0.04117 -5.36385,0.187199 -7.4336,0.748046 -3.96896,1.075488 -7.815845,2.789276 -10.929684,4.882813 -2.661002,1.789081 -6.009111,5.198183 -7.867187,7.988281 -3.141417,4.717174 -5.303007,10.75043 -5.839844,16.314453 -0.141433,1.46585 -0.233423,2.218677 -0.316406,2.535157 -0.08298,0.31647 -0.06171,0.243155 -0.392578,0.609375 -0.476811,0.52778 -0.867838,0.672922 -1.25586,0.664062 -0.388022,-0.009 -0.886937,-0.206008 -1.46875,-0.798828 l -0.480469,-0.488281 0.105469,-2.06836 c 0.251228,-5.004741 1.313857,-9.406873 3.236328,-13.472656 0.315796,-0.667869 0.601354,-1.311058 0.814453,-1.828125 0.10655,-0.258532 0.193766,-0.484178 0.261719,-0.677734 0.03397,-0.09678 0.06386,-0.185029 0.08984,-0.279297 0.02598,-0.09427 0.06445,-0.148468 0.06445,-0.421875 0,-0.08965 4.01e-4,-0.238746 -0.06836,-0.455078 -0.06874,-0.216331 -0.243045,-0.482517 -0.445313,-0.638672 -0.404543,-0.312311 -0.695259,-0.301896 -0.970703,-0.324219 -0.550889,-0.04465 -1.266927,-0.01394 -2.673828,0.03711 -5.29731,0.192233 -9.80156,1.656223 -14.1875,4.613281 -4.592693,3.096453 -7.376924,6.418469 -10.277344,12.214843 -1.689704,3.376802 -2.310408,5.133401 -2.566406,7.367188 -0.265523,2.31686 -0.281631,7.60726 0.01172,9.63672 0.62638,4.3335 3.66857,10.39973 6.96875,14.09766 2.335133,2.61655 5.715945,5.15861 9.037109,6.81054 0.861465,0.42849 1.346995,0.57723 1.429688,0.64844 0.08269,0.0712 0.25083,0.26908 0.390625,1.46289 0.279593,2.38762 0.241157,7.95764 0.296875,20.35742 l 0.0957,21.0293 a 1.1403959,1.1403959 0 0 0 0.291015,0.75781 l 3.472657,3.86914 3.472656,3.8711 a 1.1403959,1.1403959 0 0 0 0.847656,0.3789 h 37.833982 37.83399 a 1.1403959,1.1403959 0 0 0 1.02929,-0.64844 l 0.33985,-0.70898 c 0.21723,-0.45331 0.99743,-2.17704 1.79101,-3.94727 l 1.44141,-3.21289 a 1.1403959,1.1403959 0 0 0 0.0996,-0.46679 l 0.002,-20.97852 c 0.002,-9.58037 0.01,-14.83799 0.0527,-17.74609 0.0426,-2.9081 0.25048,-3.48065 0.12109,-3.2461 0.1829,-0.33156 0.30819,-0.48806 0.62109,-0.73046 0.3129,-0.24241 0.83778,-0.54848 1.69336,-0.97266 7.1437,-3.54165 12.53813,-10.16272 15.08399,-18.41797 0.24874,-0.80654 0.41402,-1.40639 0.48633,-2.33984 0.0723,-0.93344 0.0736,-2.19897 0.0781,-4.64063 0.0113,-6.15705 -0.21054,-7.251579 -2.08789,-11.031249 -2.01094,-4.048631 -3.44906,-6.072883 -6.44531,-9.066406 C 161.79382,77.25994 156.14181,74.696606 148.51953,74.375 l -2.80078,-0.117188 a 1.1403959,1.1403959 0 0 0 -1.0625,1.66211 l 1.03125,2 c 2.08274,4.043572 3.59375,10.473604 3.59375,15.388672 v 0.876953 l -0.54687,0.511719 c -0.46651,0.4363 -0.80425,0.62109 -1.0293,0.68164 -0.22512,0.0606 -0.39222,0.05745 -0.75391,-0.09375 -0.52404,-0.21896 -1.06503,-0.723546 -1.20117,-0.941406 -0.004,-0.0117 -0.007,-0.01504 -0.01,-0.02734 -0.0226,-0.0997 -0.0528,-0.255553 -0.082,-0.439453 -0.0584,-0.36778 -0.11797,-0.854284 -0.16015,-1.339844 -0.19837,-2.283741 -0.71378,-4.576566 -1.67188,-7.513671 -3.90921,-11.983841 -11.39187,-19.602454 -22.14062,-22.388672 -2.35369,-0.610107 -5.15299,-0.927316 -7.87891,-0.96875 z M 79.966797,119.07617 c 1.547966,0.49031 3.694395,8.00926 1.65625,2.74414 0.430368,3.76623 2.988159,8.70403 7.199219,14.49805 1.329852,1.82975 1.936666,2.97145 2.019531,3.4668 0.04143,0.24769 0.02357,0.32362 -0.07031,0.50195 -0.09388,0.17832 -0.32136,0.45453 -0.724609,0.80859 -0.275785,0.24214 -0.313234,0.25231 -0.355469,0.26563 -0.04224,0.0133 -0.256124,0.0449 -0.777344,0.0449 -0.692048,0 -0.725123,0.0107 -1.005859,-0.19922 -0.280736,-0.20998 -0.834357,-0.8487 -1.794922,-2.12109 -2.893682,-3.83307 -5.304963,-8.1526 -6.753906,-11.76367 -0.724472,-1.80555 -1.206397,-3.43889 -1.398437,-4.69922 -0.192039,-1.26033 -0.01346,-2.10412 0.123046,-2.30469 0.422704,-0.62108 0.823656,-0.89801 1.269532,-0.96289 0.182764,-0.27459 0.392143,-0.34934 0.613281,-0.2793 z m 67.253903,0.28321 c 1.66625,0.38415 1.40071,0.16926 1.89063,1.07617 0.33424,0.79995 0.0531,3.51323 -1.26367,6.79492 -1.31678,3.28169 -3.48337,7.20986 -6.20118,11.01758 -0.44124,0.61817 -0.92843,1.2584 -1.3457,1.77929 -0.41727,0.52089 -0.817,0.96128 -0.875,1.01368 -0.32204,0.29095 -0.37876,0.31507 -0.40625,0.32421 -0.0275,0.009 -0.2464,0.041 -0.81445,0.041 -0.60629,0 -0.79073,-0.0354 -0.77539,-0.0293 0.0153,0.006 -0.0904,-0.0572 -0.48242,-0.44922 -0.61811,-0.61812 -0.67726,-0.77323 -0.64258,-1.11523 0.0347,-0.34199 0.39038,-1.1444 1.28125,-2.43359 5.37047,-7.77169 7.2845,-11.45452 7.91601,-15.54102 0.13442,-0.86976 0.29469,-1.37858 0.44922,-1.65039 0.15452,-0.27181 0.28297,-0.39184 0.69336,-0.59766 0.31787,-0.15941 0.47536,-0.21196 0.57617,-0.23046 z m -33.3789,0.0664 c 1.95469,-0.4943 2.12104,5.94558 1.68554,2.91992 0.0945,1.63113 0.10607,4.36969 0.0762,8.96875 l -0.0547,8.56055 -0.28711,0.49414 c -0.1529,0.26388 -0.63257,0.78346 -0.62695,0.7793 0.12968,-0.096 -0.40756,0.14481 -0.89258,0.19531 -0.48501,0.0505 -1.06216,-0.0593 -0.96094,-0.0156 0.13822,0.0596 -0.30511,-0.23757 -0.58789,-0.57226 -0.26794,-0.31712 -0.46782,-0.71355 -0.47461,-0.70117 -0.006,-0.0356 -0.0117,-0.062 -0.0137,-0.0957 -0.008,-0.14344 -0.0189,-0.35763 -0.0273,-0.625 -0.0167,-0.53474 -0.0303,-1.28757 -0.043,-2.19531 -0.0256,-1.81546 -0.0418,-4.25514 -0.041,-6.875 0.002,-5.33284 0.008,-7.97152 0.15039,-9.20898 0.0715,-0.61873 0.16498,-0.82152 0.21484,-0.89844 0.0499,-0.0769 0.15719,-0.16857 0.50977,-0.4375 0.3443,-0.2626 0.85183,-0.37611 1.37305,-0.29297 z"
       transform="matrix(1,0,0,1.0022191,-0.76437,0.9928072)" />
    <path
       id="path887"
       style="opacity:0.501683;fill:#ffffff;fill-opacity:1;stroke-width:0.714286"
       sodipodi:type="inkscape:offset"
       inkscape:radius="5.0570722"
       inkscape:original="M 250.49609 723.12891 L 250.04492 728.98633 C 249.79653 732.20833 249.86657 741.13805 250.20117 748.83008 C 250.79295 762.43442 250.86624 762.91138 252.86719 766.33008 C 255.37677 770.6178 261.3908 777.09614 264.22266 778.56055 C 265.36846 779.15307 267.78386 779.88787 269.58984 780.19336 C 276.52348 781.3662 297.52372 780.8988 297.51172 779.57227 C 297.50951 779.32903 293.59111 774.46987 288.80273 768.77344 C 284.01435 763.07701 273.43689 750.47563 265.29688 740.77148 L 250.49609 723.12891 z "
       d="m 250.56055,718.07227 a 5.0575779,5.0575779 0 0 0 -5.10743,4.66796 l -0.45117,5.85743 c -0.30903,4.00859 -0.19417,12.62193 0.14649,20.45312 0.29617,6.80866 0.43325,10.32766 0.85742,13.11133 0.42417,2.78367 1.45743,4.94805 2.49609,6.72266 1.58351,2.70548 3.85179,5.51317 6.2168,8.06054 2.36501,2.54737 4.36048,4.64855 7.18164,6.10742 2.20628,1.14092 4.45597,1.72272 6.8457,2.12696 4.40358,0.74487 11.22347,0.83544 17.52149,0.69531 3.14901,-0.0701 6.06916,-0.21559 8.375,-0.45117 1.15292,-0.11779 2.12252,-0.24099 3.11133,-0.47266 0.4944,-0.11583 0.97094,-0.21916 1.75,-0.60156 0.38952,-0.1912 0.88149,-0.43359 1.53125,-1.08594 0.64975,-0.65235 1.54866,-2.02686 1.5332,-3.73633 a 5.0575779,5.0575779 0 0 0 0,-0.002 c -0.0153,-1.68547 -0.35071,-1.83473 -0.47852,-2.11133 -0.1278,-0.27659 -0.20912,-0.41151 -0.27929,-0.52929 -0.14034,-0.23558 -0.23268,-0.36626 -0.33008,-0.50586 -0.19481,-0.27921 -0.39316,-0.54606 -0.63867,-0.86719 -0.49103,-0.64225 -1.14801,-1.4704 -1.95313,-2.46875 -1.61024,-1.9967 -3.80211,-4.65317 -6.21484,-7.52344 -4.785,-5.6924 -15.36289,-18.29502 -23.50195,-27.99805 l -14.80079,-17.64257 a 5.0575779,5.0575779 0 0 0 -3.81054,-1.80664 z"
       transform="matrix(0.26458333,0,0,0.26458333,3.8226057,4.4757863)" />
    <path
       id="path890"
       style="opacity:0.501683;fill:#ffffff;fill-opacity:1;stroke-width:0.178571"
       sodipodi:type="inkscape:offset"
       inkscape:radius="2.5016534"
       inkscape:original="M 417.41211 698.23828 C 359.81712 698.26496 303.5747 698.56787 303.01758 699.125 C 302.87272 699.26986 307.51631 704.42288 316.62695 714.22852 C 320.34333 718.2284 321.44054 719.40122 341.10742 740.38867 C 355.64747 755.90505 372.70783 774.18417 376.54688 778.35938 L 378.95703 780.98047 L 424.67188 780.99023 L 470.38672 781.00195 L 471.69727 779.31055 C 473.34965 777.17885 480.32453 769.13737 503.06055 743.15625 C 525.59919 717.40068 534.56578 707.08413 539.22266 701.54883 L 541.25 699.13867 L 539.92578 699.01562 C 533.95579 698.46152 475.0071 698.2116 417.41211 698.23828 z "
       d="m 417.41016,695.73633 c -28.80151,0.0133 -57.26288,0.0954 -78.60157,0.24414 -10.66934,0.0744 -19.55686,0.16599 -25.82421,0.27344 -3.13368,0.0537 -5.60913,0.11105 -7.34376,0.17382 -0.86731,0.0314 -1.54514,0.0627 -2.05859,0.0996 -0.25672,0.0185 -0.46641,0.0364 -0.6875,0.0664 -0.11054,0.015 -0.2179,0.0298 -0.39453,0.0723 -0.17663,0.0425 -0.31817,-0.24435 -1.25195,0.68945 -5.7e-4,5.6e-4 -0.28948,0.33323 -0.39258,0.50976 -0.10311,0.17654 -0.17566,0.35157 -0.22656,0.51368 -0.10182,0.3242 -0.11845,0.58914 -0.11524,0.79492 0.006,0.41155 0.0799,0.62014 0.13281,0.77734 0.1059,0.3144 0.18315,0.42361 0.24414,0.52735 0.12199,0.20747 0.20232,0.31381 0.29688,0.43945 0.18913,0.25127 0.41246,0.52009 0.70703,0.86719 0.58915,0.69418 1.44848,1.66803 2.59766,2.94336 2.29836,2.55064 5.74293,6.29548 10.30273,11.20312 3.71753,4.00111 4.8194,5.18046 24.48633,26.16797 14.53737,15.51351 31.62184,33.81822 35.42383,37.95312 l 2.41015,2.6211 a 2.5019036,2.5019036 0 0 0 1.8418,0.80859 l 45.71485,0.01 45.71484,0.0117 a 2.5019036,2.5019036 0 0 0 1.97656,-0.96875 l 1.31055,-1.69141 c 1.43035,-1.84527 8.535,-10.0616 31.26953,-36.04102 22.54012,-25.75726 31.50386,-36.0685 36.19336,-41.64257 l 2.02734,-2.41211 a 2.5019036,2.5019036 0 0 0 -1.68164,-4.09961 l -1.32422,-0.12305 a 2.5019036,2.5019036 0 0 0 -0.002,0 c -1.85249,-0.17194 -6.47981,-0.26999 -13.75781,-0.37109 -7.27801,-0.1011 -17.01006,-0.18187 -28.35547,-0.2461 -22.69082,-0.12845 -51.8313,-0.18521 -80.63281,-0.17187 z"
       transform="matrix(0.26458333,0,0,0.26458333,3.6852679,3.7797619)" />
    <path
       id="path893"
       style="opacity:0.501683;fill:#ffffff;fill-opacity:1;stroke-width:0.178571"
       sodipodi:type="inkscape:offset"
       inkscape:radius="2.2587676"
       inkscape:original="M 575.90234 750.70898 C 575.45389 750.56028 561.54826 766.2342 552.99023 776.53516 C 549.94818 780.19675 549.75963 780.52463 550.51953 780.83008 C 551.13608 781.07792 553.15172 781.04231 554.63867 780.75781 C 557.34983 780.23908 560.18161 779.09803 562.92969 777.41602 C 567.54456 774.5914 572.39923 769.43689 573.91992 765.74609 C 575.48709 761.9425 576.92333 751.04753 575.90234 750.70898 z "
       d="m 576.61328,748.56445 c -0.91713,-0.30411 -1.3309,-0.0474 -1.57031,0.0469 -0.23941,0.0943 -0.35003,0.16904 -0.44531,0.23047 -0.19057,0.12286 -0.28898,0.20727 -0.39454,0.29687 -0.2111,0.17921 -0.40924,0.36923 -0.65039,0.60742 -0.48229,0.47639 -1.10767,1.13046 -1.86914,1.94727 -1.52293,1.63361 -3.57778,3.90914 -5.88671,6.51172 -4.61787,5.20515 -10.24149,11.70684 -14.54493,16.88672 -1.52754,1.83864 -2.32007,2.74779 -2.88086,3.72265 -0.28039,0.48744 -0.74442,1.23045 -0.36718,2.41602 0.37723,1.18557 1.32411,1.55474 1.67382,1.69531 1.13337,0.45559 1.72154,0.34189 2.61524,0.32617 0.8937,-0.0157 1.85811,-0.10101 2.76953,-0.27539 3.02652,-0.57907 6.09745,-1.82952 9.04688,-3.63476 5.05686,-3.09516 10.01488,-8.1629 11.89843,-12.73438 0.98039,-2.37943 1.67005,-6.02265 2.11328,-9.38476 0.22162,-1.68106 0.36325,-3.24762 0.38086,-4.52539 0.009,-0.63889 -0.003,-1.19119 -0.0976,-1.76563 -0.0471,-0.28722 -0.10367,-0.57995 -0.28321,-0.97461 -0.17953,-0.39466 -0.54762,-1.07419 -1.50781,-1.39258 z"
       transform="matrix(0.26458333,0,0,0.26458333,3.5907738,3.7797619)" />
    <g
       inkscape:label="Layer 1"
       id="layer1-7"
       transform="translate(14.21579,16.372)">
      <path
         style="opacity:0.501683;fill:#ffffff;fill-opacity:0.498282;stroke-width:0.39206"
         d="m 133.29168,194.90728 c 0.0753,-0.19852 2.25856,-2.59237 4.85198,-5.3197 4.56178,-4.7973 4.71942,-4.92071 4.84159,-3.78979 0.34379,3.18261 -2.392,6.92511 -6.2767,8.58637 -2.1327,0.91204 -3.65223,1.1447 -3.41687,0.52312 z"
         id="path954" />
      <path
         id="path950"
         style="opacity:0.501683;fill:#ffffff;fill-opacity:0.498282;stroke-width:0.296317"
         d="m 100.51546,169.18721 c -19.192416,0 -34.009807,0.11385 -34.009807,0.26148 0,0.14387 4.887764,5.6023 10.861352,12.12949 l 10.860836,11.8675 13.326829,-0.15296 12.88707,0.14624 4.13205,-4.86327 c 2.27262,-2.67487 6.79149,-7.98584 10.04176,-11.80238 3.25024,-3.81656 5.9092,-7.08474 5.9092,-7.26261 0,-0.22968 -9.85655,-0.32349 -34.00929,-0.32349 z" />
      <path
         id="path983"
         style="opacity:0.501683;fill:#ffffff;fill-opacity:0.498282;stroke-width:0.714286"
         transform="matrix(0.26458333,0,0,0.26458333,8.7879467,38.515774)"
         d="m 177.43359,528.92773 c -0.002,-2.1e-4 -0.64868,-0.82596 -0.64927,-0.82477 -2.4e-4,4.9e-4 -1.80096,2.34496 -1.82534,2.42243 -0.0244,0.0775 -0.0382,0.13334 -0.0488,0.17969 -0.0212,0.0927 -0.0307,0.1488 -0.0371,0.19336 -0.0129,0.0891 -0.0145,0.1336 -0.0176,0.17383 -0.006,0.0804 -0.008,0.1312 -0.01,0.18554 -0.004,0.10869 -0.007,0.22114 -0.008,0.36328 -0.002,0.28429 -0.001,0.67119 0.002,1.16211 0.006,0.98184 0.0238,2.37481 0.0488,4.08203 0.05,3.41445 0.13368,8.08617 0.24024,13.19727 l 0.38867,18.57227 c 0.008,0.36903 0.10429,0.73076 0.28125,1.05468 l 2.08984,3.82422 c 4.74318,8.67225 11.56066,14.37532 19.36719,15.58203 2.75588,0.426 8.49677,0.51163 14.01758,0.47071 2.7604,-0.0205 5.40026,-0.0849 7.4375,-0.19336 1.01862,-0.0542 1.8798,-0.11777 2.57617,-0.20117 0.34819,-0.0417 0.65096,-0.0856 0.96484,-0.15626 0.31388,-0.0707 2.14247,1.30155 3.07589,0.36607 0.80537,-0.80705 1.49985,-1.33878 1.46401,-1.74581 -0.0358,-0.40702 -1.41595,-1.99653 -1.50167,-2.23968 -0.17144,-0.48629 -0.78945,-2.342 -1.05999,-2.82701 -0.54109,-0.97 -1.96906,-0.72443 -2.87081,-1.9188 -2.15165,-2.84982 -12.56411,-15.43929 -22.65626,-27.54492 -5.04606,-6.05282 -9.97332,-11.93455 -13.65429,-16.28906 -1.84049,-2.17726 -3.36839,-3.97222 -4.44922,-5.22266 -0.54042,-0.62522 -0.96717,-1.11125 -1.2793,-1.45703 -0.15606,-0.17289 -0.27738,-0.30679 -0.40234,-0.4336 -0.0625,-0.0634 -0.1133,-0.11805 -0.24414,-0.22851 -0.0654,-0.0552 -0.11965,-0.12006 -0.39258,-0.27149 -0.13646,-0.0757 -2.62274,-0.57708 -1.46377,-0.2648 z" />
      <g
         id="g847"
         transform="translate(-0.97443714,-0.71796389)">
        <path
           style="fill:#fd6700;stroke-width:0.264583"
           d="m 111.94194,212.3114 c -1.34842,-0.88368 -2.8973,-3.60434 -2.90798,-4.47527 -0.01,-0.79604 1.43926,-2.89188 10.09034,-12.66786 4.80721,-5.4323 9.09346,-10.35679 9.525,-10.90249 0.43154,-0.5457 0.98748,-1.42649 1.11293,-1.4265 0.12546,0 1.6866,1.1563 2.65256,2.07958 0.96596,0.92328 2.45125,1.83414 2.81462,2.52564 l 1.65968,1.38151 -0.86325,0.92553 c -0.31685,0.3397 -4.64459,4.92467 -9.38872,10.30251 -4.74412,5.37783 -8.72543,10.03715 -8.92901,10.31321 -0.63059,0.85509 -3.16021,2.24506 -3.59748,2.23095 -0.22846,-0.007 -1.4065,0.21269 -2.16869,-0.28681 z m -22.888687,-0.50771 c -0.481508,-0.5457 -6.27433,-7.06438 -12.555332,-14.48594 -10.871282,-12.84538 -14.12009,-16.9917 -21.365369,-25.52111 -5.603512,-6.59665 -14.42005,-16.66517 -14.730507,-17.05854 -0.05155,-0.0653 -0.329367,-0.0208 -0.992731,0.15659 -3.576267,0.95651 -8.763991,0.54923 -12.242275,-1.11586 -2.506549,-1.1999 -4.039556,-3.21896 -5.530063,-5.20178 -2.574278,-3.42454 -3.49873,-7.04056 -3.250547,-10.19996 0.50841,-6.47211 4.943182,-10.42634 11.832768,-10.75306 3.369442,-0.15979 5.6233,0.55451 8.25398,1.93689 1.966095,1.03316 5.088127,3.76782 5.969933,5.4963 1.608211,3.15236 2.135064,8.45967 1.027296,12.60863 -0.330258,1.23693 -0.635779,2.34314 -0.707807,2.66036 -0.129939,0.57226 -0.208555,0.47991 10.842008,12.43034 0.740098,0.80036 2.985283,2.88395 4.585078,4.6302 1.599793,1.74625 3.159124,3.18919 3.159124,3.18919 -0.08219,0.062 1.111251,1.84236 2.71198,3.58597 1.600729,1.74362 3.042175,3.02914 3.232085,3.23208 0.18991,0.20295 6.30003,7.51092 13.767783,15.29245 l 13.233503,13.78953 0.386245,1.63585 c 0.253687,1.07442 -0.572,2.06574 -1.332954,2.93242 -1.033346,1.17692 -2.530345,1.30279 -4.046521,1.30279 -0.953355,0 -1.497345,0.30703 -2.247677,-0.54334 z m 48.315857,-27.24201 c -0.64876,-0.66229 -2.4361,-1.65849 -3.22468,-2.57876 l -2.28136,-1.56358 2.12545,-2.7885 c 0.86521,-1.13512 2.33727,-1.91301 2.91379,-2.60424 0.57652,-0.69122 1.47992,-1.04416 1.60334,-1.04416 0.12341,0 0.88959,0.38028 1.64486,1.07605 0.75528,0.69577 2.23798,1.77595 2.99856,2.56574 l 1.82341,1.39232 -1.33645,1.3728 c -0.64248,0.65996 -1.86456,2.24544 -2.78098,3.37323 -0.91643,1.12779 -1.95319,1.86153 -1.9863,1.86153 -0.0331,0 -0.85088,-0.40013 -1.49964,-1.06243 z"
           id="path865"
           sodipodi:nodetypes="scssssscssscssssscsssssssssssssscsssssscssssscssss" />
        <path
           style="fill:#5d5d5d;stroke-width:0.264583"
           d="m 67.810276,191.56269 c 0,0 -0.971219,-0.31207 -0.55157,0.017 0.254661,0.19972 0.437965,0.31621 0.437965,0.37115 0,0.21776 -0.241359,-0.12092 -0.241359,-0.12092 z m 75.106434,-17.81434 c -3.14038,-2.99687 -5.2652,-4.71329 -5.12464,-4.89798 0.12104,-0.15906 1.47112,-2.8054 2.63974,-5.4192 4.19079,-9.3733 5.85436,-13.84299 9.35813,-19.94934 6.82457,-11.89382 12.73274,-18.05082 19.20322,-21.23946 2.98045,-1.46877 4.94021,-1.97034 7.69852,-1.97034 8.76279,0 16.24994,7.4671 15.68434,15.79416 -0.81621,12.01684 -11.80816,24.57661 -29.73286,34.93307 -3.40845,1.96932 -8.13825,4.5827 -11.49993,5.96622 -1.30969,0.53901 -2.47799,1.10057 -2.6251,1.21907 -0.15949,0.12847 -0.83732,0.11024 -5.60142,-4.4362 z m 11.89115,-3.6404 c 5.40241,-3.19543 13.09454,-8.31259 16.68869,-11.10208 3.84217,-2.98199 8.99829,-8.05275 11.09241,-10.90878 2.03439,-2.77457 3.84907,-6.4386 4.53077,-9.14812 0.5235,-2.08071 0.74031,-6.50611 0.31875,-6.50611 -0.11428,0 -0.60114,0.79766 -1.08189,1.77258 -1.22676,2.48774 -4.8399,7.92627 -7.34762,11.05971 -5.08975,6.35972 -10.43716,11.58833 -21.92206,21.43501 -3.34698,2.86956 -6.19853,5.32255 -6.33678,5.45108 -0.70462,0.65513 0.56411,0.0131 4.05773,-2.05329 z m -0.2345,-7.38166 c 8.56972,-7.89285 18.24469,-18.04794 22.8019,-23.93343 3.32154,-4.28966 6.75724,-10.21656 6.22871,-10.74509 -0.30369,-0.30369 -2.06029,0.48193 -3.56223,1.59315 -5.86788,4.34143 -17.97984,17.92548 -29.94643,35.49468 -2.81054,4.12641 -2.01104,3.21814 -1.39761,2.62441 0.82637,-0.79984 3.62009,-2.9563 5.87566,-5.03372 z m -3.68583,-6.4068 c 10.38511,-14.46747 19.69936,-24.73334 25.91399,-29.39922 1.23519,-0.92737 2.28549,-1.79057 2.334,-1.91822 0.0485,-0.12766 -0.67062,-0.23211 -1.59806,-0.23211 -5.19984,0 -10.31119,3.02905 -15.66881,9.28553 -5.09843,5.95381 -9.8946,14.17563 -14.34802,23.63437 -1.78549,3.79225 -4.35239,9.52156 -4.35239,9.9574 0,0.11215 0.78146,-1.04517 2.34906,-3.36806 1.5676,-2.3229 3.85558,-5.84964 5.37023,-7.95969 z m 1.81372,-86.78132 -0.64143,-0.727604 0.72761,0.641432 c 0.68005,0.599517 0.84894,0.813777 0.64143,0.813777 -0.0474,0 -0.37482,-0.327422 -0.72761,-0.727605 z M 77.050447,58.334626 c 0,-0.07276 0.47625,-0.597337 1.058333,-1.165727 0.582083,-0.568389 1.058333,-0.973903 1.058333,-0.901143 0,0.07276 -0.47625,0.597337 -1.058333,1.165727 -0.582083,0.568389 -1.058333,0.973903 -1.058333,0.901143 z"
           id="path859"
           sodipodi:nodetypes="cssscssssssssssscsssssssccssscssssssssssssscssssssss" />
        <path
           id="path849"
           style="fill:#000000;stroke-width:0.264583"
           d="m 89.866967,216.34738 c -1.291974,-0.33315 -3.318868,-1.42967 -3.971031,-2.14827 -0.330168,-0.3638 -1.35254,-1.55443 -2.271938,-2.64583 -0.9194,-1.09141 -1.732769,-2.04391 -1.80749,-2.11667 -0.07472,-0.0728 -0.731165,-0.84627 -1.45877,-1.71892 -0.727604,-0.87265 -1.576816,-1.88468 -1.887135,-2.24896 -0.310319,-0.36428 -1.091152,-1.31717 -1.735182,-2.11754 l -1.170964,-1.4552 -7.657526,-0.14134 c -6.424266,-0.11858 -7.84746,-0.21568 -8.836856,-0.60293 -3.03617,-1.18836 -5.487625,-3.50034 -7.025494,-6.62577 -1.536063,-3.12176 -1.70728,-4.52492 -1.712458,-14.03397 l -0.0046,-8.43941 -0.982535,-1.19906 c -0.540396,-0.65948 -1.225005,-1.46166 -1.521355,-1.78262 -0.296349,-0.32097 -1.312725,-1.5071 -2.25861,-2.63584 -0.945885,-1.12875 -2.196042,-2.60142 -2.778125,-3.2726 -0.582083,-0.67118 -1.594115,-1.91099 -2.248958,-2.75512 -1.031624,-1.32983 -1.278959,-1.51228 -1.852084,-1.36623 -0.363802,0.0927 -1.971145,0.22927 -3.571875,0.30346 -4.210091,0.19514 -7.320449,-0.67189 -11.325672,-3.15707 -1.44419,-0.8961 -4.300137,-3.77583 -5.527631,-5.57367 -3.212708,-4.70547 -4.403975,-10.71424 -3.090438,-15.5882 0.535438,-1.98678 1.751471,-4.64685 2.464085,-5.39019 0.154957,-0.16164 0.638927,-0.73689 1.07549,-1.27835 0.970996,-1.20429 3.583589,-3.11955 5.201227,-3.81295 0.658462,-0.28225 2.125933,-0.71981 3.261046,-0.97235 5.63343,-1.25332 12.956803,1.18467 17.225093,5.73432 2.743682,2.92455 4.351008,5.48501 5.070812,8.58209 l 0.796935,3.42896 0.04799,-11.83643 0.01461,-10.76734 -1.787032,-0.93906 C 42.335804,114.51385 36.31203,107.19858 33.690788,99.740859 31.623404,93.858922 31.310825,86.358855 32.881928,80.332996 c 3.243356,-12.439669 13.11314,-21.96328 25.647685,-24.748122 2.68908,-0.597442 8.835499,-0.825618 11.141049,-0.413593 l 1.800323,0.321736 2.337998,-2.358125 c 5.241417,-5.286535 12.214471,-8.839484 19.910214,-10.144761 2.55429,-0.433234 9.087373,-0.433234 11.641663,0 7.69575,1.305277 14.6688,4.858226 19.91022,10.144761 l 2.338,2.358125 1.80032,-0.321736 c 2.30555,-0.412025 8.45197,-0.183849 11.14105,0.413593 7.17448,1.593978 13.53786,5.374945 18.30867,10.878571 4.74544,5.474351 7.39036,11.547348 8.16659,18.751288 1.07549,9.981261 -2.42728,19.941437 -9.54193,27.132607 -2.29393,2.31861 -5.22113,4.55239 -7.47448,5.70388 l -1.25677,0.64222 v 13.31962 13.31961 l -2.06878,4.07229 c -1.13782,2.23975 -2.28398,5.20219 -2.88206,6.33068 l -0.90777,2.21117 -0.20749,-20.87374 c -0.0172,-19.15359 0.0148,-20.70148 0.44411,-21.52729 0.46745,-0.89908 0.62055,-1.00747 3.24073,-2.29424 6.37367,-3.13011 11.61058,-9.59125 13.93201,-17.18889 0.68023,-2.226278 0.728,-2.6998 0.73393,-7.276042 0.007,-5.678461 -0.23173,-6.866911 -2.14987,-10.686164 -1.77737,-3.538939 -3.60287,-6.100794 -6.14925,-8.629647 -4.53492,-4.503717 -9.83343,-7.227295 -15.42382,-7.928271 -2.22429,-0.278902 -5.75967,-0.370606 -5.75967,-0.149401 0,0.06775 0.42813,0.902057 0.95139,1.854012 2.02454,3.683199 3.46481,9.201495 3.7309,14.294679 l 0.15205,2.910417 -0.78937,0.844741 c -1.37105,1.467212 -3.00155,1.481518 -4.34984,0.03817 -0.64383,-0.689219 -0.75351,-1.023864 -0.7538,-2.299952 -1.9e-4,-0.821354 -0.28972,-2.683997 -0.6434,-4.139205 -3.50377,-14.41626 -11.7383,-23.204651 -24.0948,-25.715432 -2.78597,-0.566095 -8.481726,-0.744477 -10.847918,-0.339739 -4.304213,0.736235 -9.885389,3.021744 -13.260634,5.430268 -5.984589,4.270515 -9.963854,10.364895 -12.084767,18.508236 -0.379005,1.455209 -0.773028,3.834183 -0.875604,5.286608 -0.169164,2.395252 -0.253362,2.707632 -0.905619,3.359888 -1.350994,1.350995 -2.964563,1.302687 -4.303368,-0.128838 l -0.79003,-0.844741 0.16946,-3.042708 c 0.287187,-5.156542 1.583288,-10.114754 3.681778,-14.084586 0.594855,-1.125325 0.990195,-2.137356 0.878533,-2.248959 -0.111662,-0.111603 -1.472972,-0.185328 -3.025135,-0.163834 -6.400956,0.08864 -12.874921,2.892977 -17.859705,7.736318 -2.449706,2.380194 -3.789503,4.325207 -5.945799,8.63165 -2.335956,4.665245 -2.553687,5.649236 -2.546091,11.506494 0.0059,4.554691 0.0563,5.060247 0.725234,7.276042 1.478012,4.895786 4.433257,9.769586 7.816969,12.891756 1.836348,1.69441 6.157973,4.63697 7.178627,4.88788 0.365697,0.0899 0.938877,0.34088 1.273736,0.55776 1.416719,0.91753 1.374619,0.22382 1.387226,22.85832 l 0.0117,20.98136 3.494042,3.88922 3.494043,3.88922 37.919402,0.0134 37.91938,0.0134 -0.2268,0.52445 c -0.0988,0.32742 -0.51851,1.17137 -0.51851,1.17137 l -0.43347,0.97765 2.38112,2.39431 c 1.24532,1.25222 3.48774,3.32273 4.89803,4.68845 1.74193,1.68689 2.69641,2.43239 2.97657,2.32489 0.36539,-0.14022 0.41187,0.4666 0.40781,5.32354 -0.003,3.78978 -0.12461,6.05347 -0.39344,7.33389 -0.80526,3.83542 -3.29459,7.54306 -6.2544,9.31536 -2.18058,1.30569 -4.00502,1.66484 -8.45726,1.66484 h -3.88601 l -2.9657,3.45242 c -7.87786,9.17075 -8.78986,9.95297 -11.93701,10.23834 -4.42284,0.40105 -8.16179,-2.71285 -8.61918,-7.17829 -0.17926,-1.75014 0.23511,-3.23127 1.37995,-4.93249 0.50654,-0.75271 0.92097,-1.41614 0.92097,-1.47427 0,-0.0581 -2.50842,-0.10571 -5.57426,-0.10571 h -5.574275 l 0.555736,0.78046 c 0.305657,0.42926 0.874146,1.47106 1.263311,2.31511 1.852208,4.01719 0.0181,8.99581 -4.011885,10.89013 -1.291444,0.60705 -4.078988,0.91994 -5.327525,0.59799 z m 25.374923,-4.31535 c 1.14968,-0.79839 1.01996,-0.65622 11.5284,-12.63459 l 9.37088,-10.6817 -0.77193,-0.64462 c -0.42455,-0.35454 -1.74546,-1.5264 -2.93533,-2.60415 -1.18988,-1.07774 -2.27727,-1.95953 -2.41642,-1.95953 -0.13915,0 -0.93855,0.80368 -1.77645,1.78594 -0.8379,0.98227 -5.22739,5.98857 -9.75442,11.12512 -4.52703,5.13656 -8.46,9.80402 -8.73993,10.37213 -0.49255,0.99964 -0.49372,1.06673 -0.0363,2.08103 0.53291,1.18178 1.68656,2.37669 3.05885,3.16825 1.19754,0.69076 1.46789,0.6899 2.47269,-0.008 z m -21.973083,-0.0425 c 0.470543,-0.1966 1.240626,-0.79606 1.711293,-1.33212 0.720043,-0.82008 0.855763,-1.18402 0.855763,-2.29471 v -1.32006 l -3.63802,-3.90498 c -2.000912,-2.14774 -5.543021,-5.98291 -7.871355,-8.5226 -2.328333,-2.53969 -5.06677,-5.51233 -6.085416,-6.60586 -1.018646,-1.09354 -8.578543,-9.31059 -16.799772,-18.26012 -8.221231,-8.94953 -15.476416,-16.84367 -16.122637,-17.54253 l -1.174946,-1.27067 0.625134,-2.4335 c 0.743881,-2.89577 1.002633,-7.57287 0.541769,-9.79283 -0.519134,-2.50067 -1.667156,-4.42261 -3.93718,-6.59138 -2.320531,-2.21702 -4.09117,-3.20037 -6.793234,-3.77273 -5.789319,-1.22631 -12.24454,0.89038 -14.158855,4.64275 -1.270845,2.49106 -1.67566,4.03772 -1.657788,6.33381 0.02868,3.68433 1.575549,7.11607 4.770036,10.58233 3.290101,3.57001 8.952465,5.53512 13.697056,4.75353 1.018646,-0.16781 2.216203,-0.36364 2.66124,-0.43517 0.713327,-0.11467 0.932302,0.0215 1.848919,1.14972 1.930315,2.37593 45.653529,53.91821 47.040874,55.45323 1.264671,1.3993 1.465517,1.52136 2.503289,1.52136 0.620564,0 1.513287,-0.16086 1.98383,-0.35747 z M 69.37753,194.66048 c 0,-0.12322 -1.160859,-1.58354 -2.579687,-3.24514 -1.418829,-1.6616 -4.306094,-5.09384 -6.416146,-7.62721 l -3.836459,-4.60613 -0.08619,1.17054 c -0.04741,0.64379 -0.04741,3.07553 0,5.40386 0.08214,4.03424 0.119351,4.28933 0.791276,5.42396 0.387797,0.65484 1.102172,1.57034 1.5875,2.03443 1.618348,1.54755 2.081506,1.66632 6.50481,1.66811 2.219193,7.9e-4 4.034896,-0.0992 4.034896,-0.22242 z m 46.03865,-0.50356 c 0.3128,-0.40018 4.51839,-5.22808 9.34577,-10.72866 4.82737,-5.50058 8.81673,-10.11425 8.86523,-10.2526 0.0554,-0.1581 -11.67405,-0.25155 -31.57361,-0.25155 -19.50016,0 -31.627927,0.0949 -31.573609,0.24709 0.04851,0.1359 3.310536,3.67801 7.248954,7.87136 3.938418,4.19334 8.460166,9.02324 10.048333,10.73311 l 2.887572,3.10886 h 12.09132 12.09132 z m 23.23904,0.15528 c 1.69459,-0.82033 3.37017,-2.52848 3.721,-3.7933 0.48991,-1.76627 0.68497,-3.94772 0.33357,-3.73054 -0.32475,0.20071 -6.42057,7.20876 -6.75461,7.76544 -0.33018,0.55023 1.38056,0.39715 2.70004,-0.2416 z m 2.587,-11.40007 c 1.26955,-1.49159 2.53577,-2.96793 2.81382,-3.28075 l 0.50554,-0.56878 -2.80737,-2.42668 c -1.56437,-1.35225 -3.18439,-2.47724 -3.18439,-2.47724 0,0 -1.57043,1.34796 -3.173,3.0324 l -2.84323,2.98846 1.27512,1.06864 c 0.70132,0.58775 2.11366,1.80901 3.13854,2.71391 1.02487,0.9049 1.88665,1.64904 1.91505,1.65365 0.0284,0.005 1.09037,-1.21202 2.35992,-2.70361 z M 50.269383,147.59026 c -0.08114,-1.17024 0.03201,-4.67662 -0.13046,-1.33166 -0.02191,0.45111 -0.528877,2.16077 -0.714008,2.76992 -0.309272,1.0176 -0.291664,1.15268 0.21686,1.66357 l 0.553463,0.55604 0.08064,-1.20055 c 0.04435,-0.66031 0.04143,-1.7661 -0.0065,-2.45732 z m 97.944507,20.35025 c 0.17431,-0.33988 0.38949,-0.54541 0.47818,-0.45672 0.0887,0.0887 -0.0539,0.36678 -0.31693,0.61797 -0.45713,0.43662 -0.46423,0.42953 -0.16125,-0.16125 z m -3.87524,-3.36508 c 0.78234,-1.8839 2.08499,-4.7945 2.89478,-6.46799 l 1.47235,-3.04271 0.0234,2.25622 0.0234,2.25621 -2.77332,4.06693 c -1.52532,2.23681 -2.83849,4.13211 -2.91816,4.21177 -0.0797,0.0797 0.49525,-1.39653 1.27759,-3.28043 z M 73.0505,127.8788 c -0.3507,-0.32743 -1.367684,-1.60866 -2.259965,-2.84718 -4.643282,-6.44508 -7.639466,-12.83486 -7.959246,-16.9742 -0.116854,-1.51258 -0.05547,-1.87699 0.431326,-2.56064 1.702559,-2.39102 5.321165,-1.16365 5.321165,1.80485 0,3.0405 2.988932,9.02911 7.46316,14.95316 2.198553,2.91097 2.358509,3.8589 0.897673,5.31974 -0.753758,0.75375 -1.090612,0.89958 -2.078032,0.89958 -0.856776,0 -1.352497,-0.1625 -1.816081,-0.59531 z m 24.662527,-0.0857 c -0.445101,-0.37452 -0.937549,-1.11867 -1.094333,-1.65365 -0.187341,-0.63924 -0.257006,-4.19256 -0.203216,-10.36539 0.08116,-9.31475 0.0869,-9.39979 0.690446,-10.24597 0.883261,-1.23832 2.329836,-1.62212 3.644046,-0.96681 1.93642,0.96555 1.96506,1.13577 1.96506,11.68017 0,7.33816 -0.0782,9.52627 -0.36481,10.21231 -0.83706,2.00335 -3.078642,2.65078 -4.637193,1.33934 z m 24.422423,-0.21862 c -1.47146,-1.47146 -1.30186,-2.3839 1.02342,-5.50613 4.21183,-5.65536 6.99146,-11.13473 7.27058,-14.3322 0.16842,-1.92932 0.77725,-2.91873 2.05566,-3.34064 1.22811,-0.40532 2.57699,0.0404 3.33234,1.10122 1.81672,2.55136 -1.50797,11.17887 -7.52792,19.53484 -2.22883,3.09371 -2.6418,3.44249 -4.07605,3.44249 -0.98742,0 -1.32428,-0.14583 -2.07803,-0.89958 z" />
      </g>
      <path
         style="opacity:0.501683;fill:#ffffff;fill-opacity:0.498282;stroke-width:0.505076"
         d="m -484.83362,595.77793 c -53.17896,-56.80664 -67.18368,-71.8537 -68.79429,-73.9145 l -1.02367,-1.30978 9.90459,-0.33171 c 12.39713,-0.4152 209.83506,-0.31442 220.00287,0.1123 l 7.47259,0.3136 -6.96752,8.10242 c -3.83214,4.45633 -19.24087,22.15628 -34.24164,39.33321 -15.00076,17.17694 -27.72869,31.88013 -28.28427,32.67376 l -1.01015,1.44297 -45.51502,0.009 -45.51501,0.009 z"
         id="path916"
         transform="matrix(0.26458333,0,0,0.26458333,8.7879467,38.515774)" />
      <path
         style="opacity:0.501683;fill:#ffffff;fill-opacity:0.498282;stroke-width:0.505076"
         d="m -588.18136,601.667 c -3.99629,-0.58476 -6.69146,-1.8856 -9.88524,-4.77118 -2.88278,-2.6046 -7.2371,-8.4266 -8.48553,-11.34568 -0.41582,-0.97227 -0.95894,-4.49518 -1.20694,-7.82868 -0.52327,-7.0338 -0.57367,-31.41644 -0.0675,-32.67024 0.26143,-0.6476 2.40958,1.64124 9.00661,9.59645 4.76482,5.74578 13.23116,15.8674 18.81409,22.49248 5.58294,6.62509 10.15226,12.19355 10.15406,12.37437 0.002,0.18082 1.22388,1.61656 2.71575,3.19052 1.49186,1.57397 3.75161,4.21219 5.02166,5.86272 l 2.30919,3.00096 -3.83845,0.32447 c -5.24072,0.443 -20.95423,0.29816 -24.53767,-0.22619 z"
         id="path918"
         transform="matrix(0.26458333,0,0,0.26458333,8.7879467,38.515774)" />
      <path
         style="opacity:0.501683;fill:#ffffff;fill-opacity:0.498282;stroke-width:0.505076"
         d="m -307.41402,601.7999 c -0.44891,-0.72636 23.99056,-29.38175 25.05897,-29.38175 1.17577,0 -0.58562,11.10121 -2.38663,15.04179 -2.23532,4.89087 -9.20359,11.0144 -15.22668,13.38082 -2.79681,1.09885 -7.02286,1.64324 -7.44566,0.95914 z"
         id="path922"
         transform="matrix(0.26458333,0,0,0.26458333,8.7879467,38.515774)" />
    </g>
    <path
       style="opacity:0.501683;fill:#227223;fill-opacity:0;stroke-width:0.714286"
       d="m 263.3487,657.23629 -13.22859,-14.76699 -0.30665,-78.27047 c -0.22751,-58.06922 -0.52935,-79.10006 -1.1695,-81.48475 -1.13007,-4.20977 -2.99911,-6.0896 -7.85767,-7.90302 -11.2127,-4.18507 -29.54154,-18.75067 -39.04145,-31.02555 -7.99248,-10.32714 -16.11279,-26.91188 -19.2693,-39.35523 -1.61625,-6.37141 -1.75018,-8.20652 -1.75018,-23.98076 0,-23.59074 0.95575,-27.54794 11.52912,-47.73544 6.25179,-11.9364 11.54963,-19.46242 18.84008,-26.76391 17.92477,-17.95191 39.17934,-28.20666 63.07088,-30.42999 4.55176,-0.42359 10.15105,-0.55252 12.44288,-0.28653 4.86393,0.56452 4.84673,0.28145 0.54119,8.909 -7.87522,15.78057 -12.00292,32.04964 -13.58959,53.56254 l -0.80428,10.90479 2.73487,2.82521 c 3.43721,3.55076 5.89239,4.85032 9.16343,4.85032 3.11371,0 5.74341,-1.29455 8.48197,-4.17548 1.89702,-1.99565 2.12792,-2.85727 3.0319,-11.31377 1.98418,-18.56162 5.96327,-32.55048 13.77843,-48.43933 2.70525,-5.5 6.96047,-12.864 9.45603,-16.36445 4.8128,-6.75078 17.62939,-19.86391 24.18024,-24.73972 10.46331,-7.78785 28.17327,-15.86462 43.92857,-20.03396 8.19107,-2.16761 9.17366,-2.2683 22.14286,-2.26905 23.09925,-0.001 37.98533,3.23031 55.49297,12.04701 23.60844,11.88903 42.12096,33.32546 53.69591,62.17679 5.66365,14.11703 10.45397,33.21208 10.45397,41.67132 0,5.44193 4.12137,10.32584 9.44226,11.18931 3.92963,0.63769 6.02675,-0.17628 9.97911,-3.87325 l 3.58367,-3.3521 -0.47039,-7.51167 c -1.43492,-22.91393 -5.86235,-41.01166 -14.0005,-57.2288 -2.21529,-4.41448 -3.23282,-7.17049 -2.75613,-7.4651 1.03834,-0.64173 15.31713,0.27935 23.18042,1.4953 32.0406,4.95463 62.41904,29.40179 78.91496,63.50711 6.79973,14.05842 6.76946,13.88581 6.76946,38.60841 v 21.42857 l -2.65013,7.68262 c -6.221,18.03442 -14.86545,32.03875 -27.6777,44.83891 -8.77805,8.76976 -13.9538,12.55773 -25.38645,18.57956 -8.52425,4.48991 -10.8036,6.44908 -11.97568,10.29346 -0.68042,2.23173 -0.84452,20.67287 -0.7195,80.85123 l 0.16195,77.96005 -6.63753,14.89709 -6.63754,14.89708 -142.91989,0.18032 -142.91989,0.18031 z m 61.40107,-128.0355 c 3.65195,-2.22685 5.9756,-5.83083 5.9756,-9.26818 0,-3.82696 -0.95717,-5.63645 -8.66431,-16.37965 -15.99304,-22.29314 -24.54281,-39.61627 -26.22002,-53.12578 -0.77696,-6.2582 -2.35492,-9.06102 -6.10242,-10.83932 -5.04511,-2.39408 -10.65921,-1.15402 -14.28531,3.15537 -1.66807,1.98237 -1.8708,2.8267 -1.8708,7.7912 0,14.20005 8.70415,35.02552 24.64497,58.96536 11.76509,17.66874 15.22533,21.07104 21.42646,21.06765 1.57143,-7.1e-4 3.86455,-0.61585 5.09583,-1.36665 z m 92.71437,-0.0476 c 1.59724,-0.77989 3.68575,-2.57259 4.64113,-3.98378 2.3338,-3.44728 2.82107,-10.48258 2.84161,-41.02682 0.0162,-24.11203 -0.66584,-37.36011 -2.05725,-39.96 -2.74591,-5.13078 -11.68204,-7.42204 -16.41136,-4.20793 -1.35376,0.92003 -3.11575,2.79322 -3.91553,4.16264 -1.35837,2.32585 -1.48917,4.1694 -1.98584,27.98865 -0.29243,14.02435 -0.28904,31.12549 0.007,38.00255 l 0.53922,12.50373 2.17307,2.71947 c 4.06797,5.09078 8.88158,6.3824 14.16743,3.80149 z m 92.8406,0.4191 c 3.09909,-1.29488 8.0637,-7.31836 16.41683,-19.91826 15.7777,-23.79916 24.67872,-44.61499 24.8878,-58.2023 0.1012,-6.57696 -0.71987,-8.39268 -5.16245,-11.41628 -4.62051,-3.1447 -12.49773,-1.51517 -15.18458,3.14115 -0.71353,1.23655 -1.79056,5.07405 -2.3934,8.52775 -1.39495,7.99185 -3.17419,13.15495 -7.60928,22.0811 -4.80952,9.67972 -9.31169,17.05295 -17.07317,27.96091 -3.59335,5.05007 -7.28853,10.59589 -8.21152,12.32404 -2.27345,4.25665 -2.20761,8.1718 0.19027,11.31558 3.7265,4.88569 8.8413,6.40004 14.1395,4.18631 z"
       id="path861"
       transform="scale(0.26458333)" />
  </g>
</svg>
